<?xml version="1.0" encoding="iso-8859-1"?>
<!-- Generator: Adobe Illustrator 18.0.0, SVG Export Plug-In . SVG Version: 6.00 Build 0)  -->
<!DOCTYPE svg PUBLIC "-//W3C//DTD SVG 1.1//EN" "http://www.w3.org/Graphics/SVG/1.1/DTD/svg11.dtd">
<svg version="1.1" xmlns="http://www.w3.org/2000/svg" xmlns:xlink="http://www.w3.org/1999/xlink" x="0px" y="0px"
	 viewBox="0 0 35.77 48.007" style="enable-background:new 0 0 35.77 48.007;" xml:space="preserve">
<g id="award">
	<g>
		<g>
			<g>
				<path d="M9.862,23.424c0.785-0.559,1.628-1.04,2.529-1.416h-0.128L12.267,22h-0.881L2.108,3.447C1.776,2.782,2.259,2,3.003,2
					h8.764c0.379,0,0.725,0.214,0.894,0.553l4.665,9.33l1.118-2.236L14.45,1.658C13.938,0.635,12.91,0,11.767,0H3.003
					C1.955,0,1.001,0.532,0.451,1.423C-0.1,2.314-0.149,3.405,0.32,4.342l9.277,18.553L9.862,23.424z"/>
			</g>
		</g>
		<g>
			<polygon points="15.263,15.873 8.214,1.777 9.109,1.329 15.928,14.967 			"/>
		</g>
		<g>
			<polygon points="13.247,19.842 4.213,1.777 5.108,1.329 13.935,18.982 			"/>
		</g>
		<g>
			<path d="M35.319,1.423C34.769,0.532,33.815,0,32.767,0h-8.764c-1.143,0-2.172,0.635-2.683,1.658l-9.725,19.447l-0.882,1.765
				c0.899-0.541,1.862-0.985,2.885-1.297l9.511-19.021C23.279,2.214,23.625,2,24.004,2h8.764c0.743,0,1.227,0.782,0.894,1.447
				L24.385,22h-2.028c1.192,0.496,2.296,1.16,3.279,1.97l0.538-1.075l9.277-18.553C35.919,3.405,35.87,2.314,35.319,1.423z"/>
		</g>
		<g>
			<path d="M17.384,21.007c0.183,0,0.361,0.02,0.542,0.027l9.63-19.258l-0.895-0.447l-9.855,19.707
				C17,21.028,17.19,21.007,17.384,21.007z"/>
		</g>
		<g>
			<path d="M21.585,21.717l9.971-19.941l-0.895-0.447l-10.051,20.1C20.941,21.514,21.266,21.608,21.585,21.717z"/>
		</g>
		<g>
			<g>
				<path d="M17.385,22.007c6.627,0,12,5.373,12,12s-5.373,12-12,12c-6.627,0-12-5.373-12-12S10.757,22.007,17.385,22.007
					 M17.385,20.007c-7.72,0-14,6.28-14,14s6.28,14,14,14c7.72,0,14-6.28,14-14S25.104,20.007,17.385,20.007L17.385,20.007z"/>
			</g>
		</g>
		<g>
			<path d="M17.385,25.007c4.971,0,9,4.029,9,9s-4.029,9-9,9c-4.97,0-9-4.029-9-9S12.414,25.007,17.385,25.007 M17.385,24.007
				c-5.514,0-10,4.486-10,10s4.486,10,10,10c5.514,0,10-4.486,10-10S22.899,24.007,17.385,24.007L17.385,24.007z"/>
		</g>
	</g>
</g>
<g id="Layer_1">
</g>
</svg>
