<?xml version="1.0" encoding="iso-8859-1"?>
<!-- Generator: Adobe Illustrator 18.0.0, SVG Export Plug-In . SVG Version: 6.00 Build 0)  -->
<!DOCTYPE svg PUBLIC "-//W3C//DTD SVG 1.1//EN" "http://www.w3.org/Graphics/SVG/1.1/DTD/svg11.dtd">
<svg version="1.1" xmlns="http://www.w3.org/2000/svg" xmlns:xlink="http://www.w3.org/1999/xlink" x="0px" y="0px"
	 viewBox="0 0 48.004 15.999" style="enable-background:new 0 0 48.004 15.999;" xml:space="preserve">
<g id="barbell-3">
	<g>
		<g>
			<rect x="11.003" y="7" width="25.998" height="2"/>
		</g>
		<g>
			<path style="fill:#1D1D1B;" d="M10,2v11.999H2V2H10 M10,0H2C0.9,0,0,0.9,0,2v11.999c0,1.1,0.9,2,2,2h8c1.1,0,2-0.9,2-2V2
				C12,0.9,11.1,0,10,0L10,0z"/>
		</g>
		<g>
			<rect x="3.98" y="0.991" style="fill:#1D1D1B;" width="1" height="14"/>
		</g>
		<g>
			<rect x="6.981" y="0.991" style="fill:#1D1D1B;" width="1" height="14"/>
		</g>
		<g>
			<path style="fill:#1D1D1B;" d="M46.004,2v11.999h-8V2H46.004 M46.004,0h-8c-1.1,0-2,0.9-2,2v11.999c0,1.1,0.9,2,2,2h8
				c1.1,0,2-0.9,2-2V2C48.004,0.9,47.104,0,46.004,0L46.004,0z"/>
		</g>
		<g>
			<rect x="39.984" y="0.991" style="fill:#1D1D1B;" width="1" height="14"/>
		</g>
		<g>
			<rect x="42.984" y="0.991" style="fill:#1D1D1B;" width="1" height="14"/>
		</g>
	</g>
</g>
<g id="Layer_1">
</g>
</svg>
