<?xml version="1.0" encoding="iso-8859-1"?>
<!-- Generator: Adobe Illustrator 18.0.0, SVG Export Plug-In . SVG Version: 6.00 Build 0)  -->
<!DOCTYPE svg PUBLIC "-//W3C//DTD SVG 1.1//EN" "http://www.w3.org/Graphics/SVG/1.1/DTD/svg11.dtd">
<svg version="1.1" xmlns="http://www.w3.org/2000/svg" xmlns:xlink="http://www.w3.org/1999/xlink" x="0px" y="0px"
	 viewBox="0 0 48 48" style="enable-background:new 0 0 48 48;" xml:space="preserve">
<g id="barbell-1">
	<g>
		<g>
			<polygon style="fill:#1D1D1B;" points="27.568,21.846 26.154,20.432 36.106,11.894 			"/>
		</g>
		<g>
			<polygon style="fill:#1D1D1B;" points="21.846,20.432 20.432,21.846 11.893,11.894 			"/>
		</g>
		<g>
			<polygon style="fill:#1D1D1B;" points="20.432,26.154 21.846,27.568 11.893,36.106 			"/>
		</g>
		<g>
			<polygon style="fill:#1D1D1B;" points="26.154,27.568 27.568,26.154 36.106,36.106 			"/>
		</g>
		<g>
			<path style="fill:#1D1D1B;" d="M24,2c12.131,0,22,9.869,22,22s-9.869,22-22,22S2,36.131,2,24S11.869,2,24,2 M24,0
				C10.745,0,0,10.745,0,24s10.745,24,24,24s24-10.745,24-24S37.255,0,24,0L24,0z"/>
		</g>
		<g>
			<path style="fill:#1D1D1B;" d="M24,5c10.477,0,19,8.523,19,19s-8.523,19-19,19S5,34.477,5,24S13.523,5,24,5 M24,4
				C12.954,4,4,12.954,4,24s8.954,20,20,20s20-8.954,20-20S35.046,4,24,4L24,4z"/>
		</g>
		<g>
			<path style="fill:#1D1D1B;" d="M24,21c0.801,0,1.555,0.312,2.121,0.879c1.17,1.17,1.17,3.073,0,4.243
				C25.555,26.688,24.801,27,24,27c-0.801,0-1.555-0.312-2.121-0.879c-1.17-1.17-1.17-3.073,0-4.243C22.445,21.312,23.199,21,24,21
				 M24,19c-1.28,0-2.559,0.488-3.536,1.465c-1.953,1.953-1.953,5.118,0,7.071C21.441,28.512,22.72,29,24,29
				c1.28,0,2.559-0.488,3.535-1.465c1.953-1.953,1.953-5.118,0-7.071C26.559,19.488,25.28,19,24,19L24,19z"/>
		</g>
	</g>
</g>
<g id="Layer_1">
</g>
</svg>
