<?xml version="1.0" encoding="utf-8"?>
<!-- Generator: Adobe Illustrator 18.1.1, SVG Export Plug-In . SVG Version: 6.00 Build 0)  -->
<svg version="1.1" id="Layer_1" xmlns="http://www.w3.org/2000/svg" xmlns:xlink="http://www.w3.org/1999/xlink" x="0px" y="0px"
	 viewBox="0 0 600 1000" enable-background="new 0 0 600 1000" xml:space="preserve">
<g id="barbell-2">
	<g>
		<g>
			<rect x="412.5" y="462.5" fill="#FFFFFF" width="187.5" height="75"/>
		</g>
		<g>
			<path fill="#FFFFFF" d="M0,525v-50c0-6.9,5.6-12.5,12.5-12.5h124.9v75H12.5C5.6,537.5,0,531.9,0,525z"/>
		</g>
		<g>
			<path fill="#FFFFFF" d="M400,225v550H200V225H400 M400,200H200c-13.8,0-25,11.2-25,25v550c0,13.8,11.2,25,25,25h200
				c13.7,0,25-11.2,25-25V225C425,211.2,413.7,200,400,200L400,200z"/>
		</g>
		<g>
			<path fill="#FFFFFF" d="M175,375v250h-25V375H175 M200,350h-50c-13.8,0-25,11.2-25,25v250c0,13.8,11.2,25,25,25h50V350L200,350z"
				/>
		</g>
		<g>
			<path fill="#FFFFFF" d="M412.5,425H450c13.7,0,25,11.2,25,25v100c0,13.8-11.3,25-25,25h-37.5V425z"/>
		</g>
		<g>
			<rect x="325" y="212.5" fill="#FFFFFF" width="25" height="575"/>
		</g>
		<g>
			<rect x="250" y="212.5" fill="#FFFFFF" width="25" height="575"/>
		</g>
	</g>
</g>
<g id="Layer_1_1_">
</g>
</svg>
