<?xml version="1.0" encoding="iso-8859-1"?>
<!-- Generator: Adobe Illustrator 18.0.0, SVG Export Plug-In . SVG Version: 6.00 Build 0)  -->
<!DOCTYPE svg PUBLIC "-//W3C//DTD SVG 1.1//EN" "http://www.w3.org/Graphics/SVG/1.1/DTD/svg11.dtd">
<svg version="1.1" xmlns="http://www.w3.org/2000/svg" xmlns:xlink="http://www.w3.org/1999/xlink" x="0px" y="0px"
	 viewBox="0 0 48.006 27.504" style="enable-background:new 0 0 48.006 27.504;" xml:space="preserve">
<g id="belt-2">
	<g>
		<g>
			<path d="M26.896,26.56c-1.378,0-2.5-1.139-2.5-2.538v-7.109c0-1.399,1.122-2.538,2.5-2.538v1c-0.827,0-1.5,0.69-1.5,1.538v7.109
				c0,0.848,0.673,1.538,1.5,1.538V26.56z"/>
		</g>
		<path d="M48,7.068C48,7.045,48.006,7.024,48.006,7c0-3.668-6.022-5.036-8-5.486C35.709,0.538,30.027,0,24.006,0
			c-6.021,0-11.703,0.538-16,1.514C6.109,1.945,0.51,3.227,0.051,6.564C0.019,6.705,0,6.849,0,6.999V22
			c0,0.081,0.005,0.161,0.014,0.24c0.203,2.853,4.027,4.1,5.306,4.518c1.496,0.488,3.357,0.715,5.859,0.715
			c1.733,0,3.625-0.104,5.629-0.214c2.306-0.127,4.691-0.257,7.197-0.257c2.508,0,4.895,0.14,7.204,0.275
			c2.008,0.117,3.904,0.228,5.642,0.228c2.368,0,4.15-0.214,5.606-0.672c1.372-0.432,5.547-1.747,5.547-4.83
			c0-0.045-0.002-0.096-0.006-0.147V7.068z M2.006,22.002c0,0,0-0.001,0-0.002H2V10.231c1.205,0.831,2.635,1.301,3.326,1.527
			c0.645,0.21,1.36,0.462,2.138,0.736c1.505,0.53,3.216,1.128,5.085,1.68c-2.968,1.086-5.864,3.656-5.864,6.2
			c0,1.882,1.584,3.78,3.609,5.08c-1.66-0.041-3.137-0.201-4.353-0.598C3.46,24.047,2.006,23.063,2.006,22.002z M41.858,24.924
			c-1.389,0.437-3.08,0.58-5.006,0.58c-3.614,0-8.051-0.503-12.846-0.503c-1.572,0-4.579,0.112-4.579,0.112h-4.148
			c-2.773,0-6.594-2.747-6.594-4.74c0-1.993,3.821-4.74,6.594-4.74h3.801C20.659,15.861,22.303,16,24.006,16
			c6.299,0,11.9-1.933,15.989-3.344c0.874-0.302,1.699-0.586,2.412-0.809c0.745-0.233,2.307-0.726,3.594-1.61v11.713
			c0.001,0.017,0.006,0.035,0.006,0.052C46.006,23.093,44.468,24.102,41.858,24.924z M41.81,9.938
			C37.811,11.188,31.326,14,24.006,14c-7.478,0-14.085-2.848-18.06-4.144C3.462,9.046,2.006,8.062,2.006,7
			c0-0.128,0.028-0.255,0.07-0.381c0.007-0.021,0.013-0.042,0.021-0.063C2.146,6.43,2.214,6.305,2.303,6.182
			c0.006-0.008,0.013-0.017,0.02-0.025c0.198-0.263,0.485-0.52,0.856-0.768C6.129,3.418,14.336,2,24.006,2
			c9.708,0,17.941,1.43,20.861,3.413c0.362,0.246,0.641,0.5,0.834,0.76c0.005,0.006,0.01,0.012,0.015,0.019
			c0.088,0.121,0.153,0.244,0.201,0.369c0.008,0.022,0.015,0.044,0.022,0.066C45.979,6.749,46.006,6.874,46.006,7
			C46.006,8.098,44.449,9.113,41.81,9.938z"/>
		<g>
			<circle cx="32.496" cy="19" r="0.5"/>
		</g>
		<g>
			<circle cx="35.497" cy="19" r="0.5"/>
		</g>
		<g>
			<circle cx="32.496" cy="22" r="0.5"/>
		</g>
		<g>
			<circle cx="29.496" cy="19" r="0.5"/>
		</g>
		<g>
			<circle cx="29.496" cy="22" r="0.5"/>
		</g>
		<g>
			<circle cx="19.495" cy="19" r="0.5"/>
		</g>
		<g>
			<circle cx="19.495" cy="22" r="0.5"/>
		</g>
		<g>
			<circle cx="16.495" cy="19" r="0.5"/>
		</g>
		<g>
			<circle cx="16.495" cy="22" r="0.5"/>
		</g>
		<g>
			<circle cx="35.497" cy="22" r="0.5"/>
		</g>
		<g>
			<path d="M26.856,19.5h-4c-0.276,0-0.5-0.224-0.5-0.5c0-0.276,0.224-0.5,0.5-0.5h4c0.276,0,0.5,0.224,0.5,0.5
				C27.356,19.276,27.132,19.5,26.856,19.5z"/>
		</g>
		<g>
			<path d="M26.856,22.5h-4c-0.276,0-0.5-0.224-0.5-0.5s0.224-0.5,0.5-0.5h4c0.276,0,0.5,0.224,0.5,0.5S27.132,22.5,26.856,22.5z"/>
		</g>
	</g>
</g>
<g id="Layer_1">
</g>
</svg>
