<?xml version="1.0" encoding="utf-8"?>
<!-- Generator: Adobe Illustrator 18.1.1, SVG Export Plug-In . SVG Version: 6.00 Build 0)  -->
<svg version="1.1" id="Layer_1" xmlns="http://www.w3.org/2000/svg" xmlns:xlink="http://www.w3.org/1999/xlink" x="0px" y="0px"
	 viewBox="0 0 600 1000" enable-background="new 0 0 600 1000" xml:space="preserve">
<g id="belt-1">
	<g>
		<g>
			<path fill="#FFFFFF" d="M308.5,515.2c-3.4,0-6.2-2.8-6.2-6.2c0-3.4,2.8-6.3,6.2-6.3c4.2,0,8.3-0.1,12.4-0.1c0,0,0.1,0,0.1,0
				c3.4,0,6.2,2.7,6.2,6.1c0,3.4-2.7,6.3-6.1,6.3C316.9,515.1,312.7,515.1,308.5,515.2C308.5,515.2,308.5,515.2,308.5,515.2z
				 M283.5,515.1C283.5,515.1,283.4,515.1,283.5,515.1c-4.3,0-8.5-0.1-12.6-0.2c-3.4-0.1-6.2-2.9-6.1-6.4c0.1-3.4,3-6.2,6.4-6.1
				c4.1,0.1,8.3,0.2,12.4,0.2c3.4,0,6.2,2.9,6.2,6.3C289.7,512.3,286.9,515.1,283.5,515.1z M346,514.4c-3.3,0-6.1-2.6-6.2-6
				c-0.1-3.4,2.6-6.3,6-6.5c4.2-0.1,8.3-0.3,12.4-0.5c3.6-0.1,6.4,2.5,6.5,5.9c0.2,3.4-2.5,6.4-5.9,6.5c-4.1,0.2-8.3,0.4-12.6,0.5
				C346.1,514.4,346,514.4,346,514.4z M246,514c-0.1,0-0.2,0-0.3,0l-12.5-0.6c-3.4-0.2-6.1-3.1-5.9-6.6c0.2-3.4,3.3-5.9,6.6-5.9
				l12.4,0.6c3.4,0.1,6.1,3.1,6,6.5C252.1,511.4,249.3,514,246,514z M383.4,512.4c-3.3,0-6-2.5-6.2-5.8c-0.2-3.4,2.4-6.4,5.8-6.7
				c4.2-0.3,8.3-0.6,12.4-0.9c3.5-0.2,6.5,2.3,6.7,5.7c0.3,3.4-2.3,6.5-5.7,6.7c-4.1,0.3-8.3,0.6-12.5,0.9
				C383.7,512.4,383.6,512.4,383.4,512.4z M208.5,511.8c-0.2,0-0.3,0-0.5,0c-4.2-0.3-8.4-0.7-12.5-1c-3.4-0.3-6-3.3-5.7-6.8
				c0.3-3.4,3.4-6,6.8-5.7c4.1,0.4,8.2,0.7,12.4,1c3.4,0.3,6,3.3,5.8,6.7C214.5,509.3,211.8,511.8,208.5,511.8z M420.8,509.2
				c-3.2,0-5.9-2.4-6.2-5.6c-0.4-3.4,2.1-6.5,5.6-6.9c4.2-0.4,8.3-0.9,12.3-1.4c3.5-0.5,6.5,2,6.9,5.5c0.4,3.4-2,6.5-5.5,6.9
				c-4.1,0.5-8.3,0.9-12.5,1.4C421.2,509.2,421,509.2,420.8,509.2z M171.2,508.3c-0.2,0-0.5,0-0.7,0c-4.2-0.5-8.4-1-12.5-1.5
				c-3.4-0.4-5.8-3.6-5.4-7c0.4-3.4,3.5-5.7,7-5.4c4,0.5,8.1,1,12.3,1.5c3.4,0.4,5.9,3.5,5.5,6.9
				C177.1,505.9,174.3,508.3,171.2,508.3z M458,504.5c-3,0-5.7-2.2-6.2-5.3c-0.5-3.4,1.8-6.6,5.2-7.1c4.2-0.6,8.2-1.3,12.2-1.9
				c3.4-0.6,6.6,1.7,7.2,5.1c0.6,3.4-1.7,6.6-5.1,7.2c-4.1,0.7-8.2,1.3-12.4,2C458.6,504.5,458.3,504.5,458,504.5z M134,503.2
				c-0.3,0-0.7,0-1-0.1c-4.2-0.7-8.4-1.4-12.4-2.1c-3.4-0.6-5.6-3.9-5-7.3c0.6-3.4,3.9-5.6,7.3-5c4,0.7,8,1.4,12.2,2.1
				c3.4,0.5,5.7,3.7,5.2,7.2C139.7,501.1,137.1,503.2,134,503.2z M494.9,497.9c-2.9,0-5.5-2-6.1-5c-0.7-3.4,1.4-6.7,4.8-7.4
				c4.1-0.9,8.2-1.8,12.1-2.7c3.3-0.8,6.7,1.3,7.5,4.7c0.8,3.3-1.3,6.7-4.7,7.5c-4,0.9-8.1,1.8-12.3,2.7
				C495.8,497.9,495.3,497.9,494.9,497.9z M97.2,496.2c-0.5,0-0.9,0-1.4-0.1c-4.2-1-8.3-1.9-12.3-3c-3.3-0.8-5.4-4.2-4.5-7.6
				s4.2-5.4,7.6-4.5c3.9,1,7.9,1.9,12,2.9c3.4,0.8,5.5,4.1,4.7,7.5C102.6,494.2,100.1,496.2,97.2,496.2z M531.3,488.8
				c-2.7,0-5.1-1.7-6-4.4c-1-3.3,0.8-6.8,4.1-7.8c4.1-1.2,7.9-2.5,11.6-3.8c3.2-1.2,6.8,0.5,8,3.8c1.2,3.2-0.5,6.8-3.8,8
				c-3.8,1.4-7.9,2.7-12.1,4C532.5,488.7,531.9,488.8,531.3,488.8z M61.1,486.3c-0.7,0-1.3-0.1-2-0.3c-4.3-1.4-8.3-2.9-12.1-4.4
				c-3.2-1.3-4.7-4.9-3.5-8.1c1.3-3.2,5-4.7,8.1-3.5c3.6,1.4,7.4,2.8,11.4,4.2c3.3,1.1,5,4.6,3.9,7.9
				C66.1,484.6,63.7,486.3,61.1,486.3z M566,474.8c-2.2,0-4.3-1.2-5.5-3.2c-1.7-3-0.6-6.8,2.4-8.5c3.7-2.1,7-4.2,9.6-6.2
				c2.7-2.1,6.6-1.7,8.8,1c2.1,2.7,1.7,6.6-1,8.8c-3.2,2.5-7,5-11.3,7.4C568.1,474.6,567,474.8,566,474.8z M27.1,470.6
				c-1.2,0-2.4-0.3-3.5-1.1c-2.7-1.8-5-3.7-7.1-5.6c-2.5-2.3-2.7-6.3-0.3-8.8c2.3-2.5,6.3-2.7,8.8-0.3c1.6,1.5,3.5,3,5.6,4.4
				c2.8,1.9,3.6,5.8,1.6,8.7C31.1,469.6,29.1,470.6,27.1,470.6z"/>
		</g>
		<g>
			<path fill="#FFFFFF" d="M308.5,646c-3.4,0-6.2-2.8-6.2-6.2c0-3.4,2.8-6.3,6.2-6.3c4.2,0,8.3-0.1,12.4-0.1c0,0,0.1,0,0.1,0
				c3.4,0,6.2,2.7,6.2,6.1c0,3.4-2.7,6.3-6.1,6.3C316.9,645.9,312.7,646,308.5,646C308.5,646,308.5,646,308.5,646z M283.5,645.9
				C283.5,645.9,283.4,645.9,283.5,645.9c-4.3,0-8.5-0.1-12.6-0.2c-3.4-0.1-6.2-2.9-6.1-6.4c0.1-3.4,3-6,6.4-6.1
				c4.1,0.1,8.3,0.2,12.4,0.2c3.4,0,6.2,2.9,6.2,6.3C289.7,643.2,286.9,645.9,283.5,645.9z M346,645.2c-3.3,0-6.1-2.6-6.2-6
				c-0.1-3.4,2.6-6.3,6-6.5c4.2-0.1,8.3-0.3,12.4-0.5c3.6,0,6.4,2.5,6.5,5.9c0.2,3.4-2.5,6.4-5.9,6.5c-4.1,0.2-8.3,0.4-12.6,0.5
				C346.1,645.2,346,645.2,346,645.2z M246,644.9c-0.1,0-0.2,0-0.3,0l-12.5-0.6c-3.4-0.2-6.1-3.1-5.9-6.6c0.2-3.4,3.3-6,6.6-5.9
				l12.4,0.6c3.4,0.1,6.1,3.1,6,6.5C252.1,642.2,249.3,644.9,246,644.9z M383.4,643.2c-3.3,0-6-2.5-6.2-5.8
				c-0.2-3.4,2.4-6.4,5.8-6.7c4.2-0.3,8.3-0.6,12.4-0.9c3.5-0.2,6.5,2.3,6.7,5.7c0.3,3.4-2.3,6.5-5.7,6.7c-4.1,0.3-8.3,0.6-12.5,0.9
				C383.7,643.2,383.6,643.2,383.4,643.2z M208.5,642.6c-0.2,0-0.3,0-0.5,0c-4.2-0.3-8.4-0.7-12.5-1c-3.4-0.3-6-3.3-5.7-6.8
				c0.3-3.4,3.4-6,6.8-5.7c4.1,0.4,8.2,0.7,12.4,1c3.4,0.3,6,3.3,5.8,6.7C214.5,640.1,211.8,642.6,208.5,642.6z M420.8,640
				c-3.2,0-5.9-2.4-6.2-5.6c-0.4-3.4,2.1-6.5,5.6-6.9c4.2-0.4,8.3-0.9,12.3-1.4c3.5-0.5,6.5,2,6.9,5.5c0.4,3.4-2,6.5-5.5,6.9
				c-4.1,0.5-8.3,0.9-12.5,1.4C421.2,640,421,640,420.8,640z M171.2,639.1c-0.2,0-0.5,0-0.7,0c-4.2-0.5-8.4-1-12.5-1.5
				c-3.4-0.4-5.8-3.6-5.4-7c0.4-3.4,3.5-5.7,7-5.4c4,0.5,8.1,1,12.3,1.5c3.4,0.4,5.9,3.5,5.5,6.9
				C177.1,636.8,174.3,639.1,171.2,639.1z M458,635.3c-3,0-5.7-2.2-6.2-5.3c-0.5-3.4,1.8-6.6,5.2-7.1c4.2-0.6,8.2-1.3,12.2-1.9
				c3.4-0.6,6.6,1.7,7.2,5.1c0.6,3.4-1.7,6.6-5.1,7.2c-4.1,0.7-8.2,1.3-12.4,2C458.6,635.3,458.3,635.3,458,635.3z M134,634.1
				c-0.3,0-0.7,0-1-0.1c-4.2-0.7-8.4-1.4-12.4-2.1c-3.4-0.6-5.6-3.9-5-7.3c0.6-3.4,3.9-5.7,7.3-5c4,0.7,8,1.4,12.2,2.1
				c3.4,0.5,5.7,3.7,5.2,7.2C139.7,631.9,137.1,634.1,134,634.1z M494.9,628.8c-2.9,0-5.5-2-6.1-5c-0.7-3.4,1.4-6.7,4.8-7.4
				c4.1-0.9,8.2-1.8,12.1-2.7c3.3-0.8,6.7,1.3,7.5,4.7c0.8,3.4-1.3,6.7-4.7,7.5c-4,0.9-8.1,1.8-12.3,2.7
				C495.8,628.7,495.3,628.8,494.9,628.8z M97.2,627c-0.5,0-0.9,0-1.4-0.1c-4.2-1-8.3-1.9-12.3-3c-3.3-0.8-5.4-4.2-4.5-7.6
				c0.8-3.3,4.2-5.4,7.6-4.5c3.9,1,7.9,1.9,12,2.9c3.4,0.8,5.5,4.1,4.7,7.5C102.6,625.1,100.1,627,97.2,627z M531.3,619.6
				c-2.7,0-5.1-1.7-6-4.4c-1-3.3,0.8-6.8,4.1-7.8c4.1-1.2,7.9-2.5,11.6-3.8c3.2-1.2,6.8,0.5,8,3.8c1.2,3.2-0.5,6.8-3.8,8
				c-3.8,1.4-7.9,2.7-12.1,4C532.5,619.5,531.9,619.6,531.3,619.6z M61.1,617.1c-0.7,0-1.3-0.1-2-0.3c-4.3-1.4-8.3-2.9-12.1-4.4
				c-3.2-1.3-4.7-4.9-3.5-8.1c1.3-3.2,5-4.7,8.1-3.5c3.6,1.4,7.4,2.8,11.4,4.2c3.3,1.1,5,4.6,3.9,7.9
				C66.1,615.5,63.7,617.1,61.1,617.1z M566,605.6c-2.2,0-4.3-1.2-5.5-3.2c-1.7-3-0.6-6.8,2.4-8.5c3.7-2,7-4.1,9.6-6.2
				c2.7-2.1,6.6-1.7,8.8,1c2.1,2.7,1.7,6.6-1,8.8c-3.2,2.5-7,5-11.3,7.4C568.1,605.4,567,605.6,566,605.6z M27.1,601.4
				c-1.2,0-2.4-0.3-3.5-1.1c-2.7-1.8-5.1-3.7-7.1-5.6c-2.5-2.3-2.7-6.3-0.3-8.8c2.4-2.5,6.3-2.7,8.8-0.3c1.6,1.5,3.5,3,5.6,4.4
				c2.8,1.9,3.6,5.8,1.6,8.7C31.1,600.4,29.1,601.4,27.1,601.4z"/>
		</g>
		<g>
			<path fill="#FFFFFF" d="M20.7,415.7c-1.7,0-3.3-0.7-4.6-2c-2.3-2.5-2.2-6.5,0.3-8.8c2-1.9,4.4-3.8,7.1-5.6
				c2.9-1.9,6.7-1.2,8.7,1.6c1.9,2.8,1.2,6.7-1.6,8.7c-2.1,1.5-4,2.9-5.6,4.4C23.8,415.1,22.3,415.7,20.7,415.7z M576.5,413.2
				c-1.4,0-2.7-0.4-3.9-1.3c-2.6-2.1-5.8-4.2-9.6-6.2c-3-1.7-4.1-5.5-2.4-8.5c1.7-3,5.5-4.1,8.5-2.4c4.3,2.4,8.1,4.9,11.3,7.4
				c2.7,2.1,3.1,6.1,1,8.8C580.1,412.4,578.3,413.2,576.5,413.2z M49.3,399.3c-2.5,0-4.8-1.5-5.8-3.9c-1.3-3.2,0.3-6.8,3.5-8.1
				c3.8-1.5,7.8-3,12.1-4.4c3.3-1.1,6.8,0.6,7.9,3.9c1.1,3.3-0.6,6.8-3.9,7.9c-4,1.3-7.8,2.8-11.4,4.2
				C50.9,399.1,50.1,399.3,49.3,399.3z M543.1,396.4c-0.7,0-1.4-0.1-2.1-0.4c-3.7-1.3-7.5-2.6-11.6-3.8c-3.3-1-5.2-4.5-4.1-7.8
				c1-3.3,4.5-5.2,7.8-4.1c4.3,1.3,8.3,2.6,12.1,4c3.2,1.2,4.9,4.7,3.8,8C548.1,394.8,545.7,396.4,543.1,396.4z M85,387.9
				c-2.8,0-5.3-1.9-6-4.7c-0.8-3.3,1.2-6.7,4.5-7.6c4-1,8.1-2,12.3-3c3.4-0.7,6.7,1.3,7.5,4.7c0.8,3.4-1.3,6.7-4.7,7.5
				c-4.1,0.9-8.1,1.9-12,2.9C86.1,387.9,85.6,387.9,85,387.9z M507.1,386c-0.5,0-0.9,0-1.4-0.2c-3.9-0.9-7.9-1.8-12.1-2.7
				c-3.4-0.7-5.5-4-4.8-7.4c0.7-3.4,4-5.5,7.4-4.8c4.2,0.9,8.3,1.8,12.3,2.7c3.4,0.8,5.4,4.1,4.7,7.5C512.5,384,510,386,507.1,386z
				 M121.7,380.1c-3,0-5.6-2.1-6.1-5.1c-0.6-3.4,1.6-6.6,5-7.3c4-0.7,8.2-1.4,12.4-2.1c3.4-0.6,6.6,1.8,7.2,5.2
				c0.5,3.4-1.8,6.6-5.2,7.2c-4.1,0.7-8.2,1.3-12.2,2.1C122.5,380,122.1,380.1,121.7,380.1z M470.3,378.7c-0.3,0-0.7,0-1-0.1
				c-4-0.7-8.1-1.3-12.2-1.9c-3.4-0.5-5.8-3.7-5.2-7.1s3.6-5.7,7.1-5.2c4.2,0.6,8.4,1.3,12.4,2c3.4,0.6,5.7,3.8,5.1,7.2
				C476,376.5,473.4,378.7,470.3,378.7z M158.8,374.4c-3.1,0-5.8-2.3-6.2-5.4c-0.4-3.4,2-6.5,5.4-7c4.1-0.5,8.3-1,12.5-1.5
				c3.4-0.4,6.5,2.1,6.9,5.5c0.4,3.4-2.1,6.5-5.5,6.9c-4.2,0.5-8.3,1-12.3,1.5C159.3,374.4,159.1,374.4,158.8,374.4z M433.2,373.4
				c-0.2,0-0.5,0-0.7,0c-4.1-0.5-8.2-0.9-12.3-1.4c-3.4-0.4-5.9-3.4-5.6-6.9c0.3-3.4,3.3-6,6.9-5.6c4.2,0.4,8.4,0.9,12.5,1.4
				c3.4,0.4,5.9,3.5,5.5,6.9C439,371.1,436.3,373.4,433.2,373.4z M196.1,370.4c-3.2,0-5.9-2.4-6.2-5.7c-0.3-3.4,2.2-6.5,5.7-6.8
				c4.1-0.4,8.3-0.7,12.5-1c3.5-0.2,6.4,2.3,6.7,5.8c0.3,3.4-2.3,6.4-5.8,6.7c-4.2,0.3-8.3,0.6-12.4,1
				C196.4,370.4,196.3,370.4,196.1,370.4z M395.9,369.7c-0.2,0-0.3,0-0.5,0c-4.1-0.3-8.2-0.6-12.4-0.9c-3.4-0.2-6-3.2-5.8-6.7
				c0.2-3.4,3.2-5.8,6.7-5.8c4.2,0.3,8.4,0.6,12.5,0.9c3.4,0.3,6,3.3,5.7,6.7C401.9,367.3,399.1,369.7,395.9,369.7z M233.5,367.8
				c-3.3,0-6.1-2.6-6.2-5.9c-0.2-3.4,2.5-6.4,5.9-6.6l12.5-0.6c3.8,0,6.4,2.5,6.5,6c0.1,3.4-2.5,6.4-6,6.5l-12.4,0.6
				C233.7,367.8,233.6,367.8,233.5,367.8z M358.5,367.4c-0.1,0-0.2,0-0.3,0c-4.1-0.2-8.2-0.4-12.4-0.5c-3.4-0.1-6.1-3-6-6.5
				c0.1-3.5,3.1-6.2,6.5-6c4.2,0.1,8.4,0.3,12.6,0.5c3.4,0.2,6.1,3.1,5.9,6.5C364.5,364.8,361.8,367.4,358.5,367.4z M271,366.4
				c-3.4,0-6.2-2.7-6.2-6.1c-0.1-3.4,2.6-6.3,6.1-6.4c4.2-0.1,8.3-0.2,12.6-0.2c3.3,0,6.3,2.7,6.3,6.2c0,3.4-2.7,6.3-6.2,6.3
				c-4.2,0-8.3,0.1-12.4,0.2C271.1,366.4,271,366.4,271,366.4z M321,366.2C320.9,366.2,320.9,366.2,321,366.2
				c-4.2-0.1-8.4-0.1-12.5-0.1c-3.4,0-6.2-2.8-6.2-6.3c0-3.4,2.8-6.2,6.2-6.2c0,0,0,0,0,0c4.2,0,8.4,0.1,12.6,0.1
				c3.4,0,6.2,2.9,6.1,6.3C327.2,363.5,324.4,366.2,321,366.2z"/>
		</g>
		<path fill="#FFFFFF" d="M599.9,407c0-0.2,0.1-0.5,0.1-0.7c0-45.8-75.3-62.9-100-68.6c-53.7-12.2-124.7-18.9-200-18.9
			s-146.3,6.7-200,18.9c-23.7,5.4-93.7,21.4-99.4,63.1c-0.4,1.7-0.6,3.6-0.6,5.4v187.5c0,1,0.1,2,0.2,3c3.2,43.6,75.7,60,99.9,65.5
			c53.7,12.2,124.7,18.9,200,18.9c3.7,0,7.3-0.1,11-0.1c0,0,0.1,0,0.1,0v0c71.1-0.6,137.8-7.2,188.9-18.8
			c24.7-5.6,100-22.7,100-68.6c0-0.6,0-1.2-0.1-1.8V407z M311.2,656.2V656c-6.9,0-12.5-5.5-12.5-12.3v-35.1c-8.1,0-16.4-0.2-25-0.4
			v35.5c0,4.3,0.9,8.4,2.2,12.3c-140.5-2.8-250.8-29.6-250.8-62.2v0H25V446.5c24.2,16.8,59.6,24.8,75.1,28.4
			c47.9,10.9,109.7,17.4,175.9,18.7c-1.4,3.9-2.3,8.1-2.3,12.6v39.8c8.6,0.2,16.9,0.3,25,0.4V506c0-6.8,5.6-12.3,12.5-12.3v-0.1
			c71.1-0.6,137.8-7.2,188.9-18.8c15.5-3.5,50.7-11.5,74.9-28.2v146.5c0,0.2,0.1,0.4,0.1,0.6C575,627.4,457.9,654.8,311.2,656.2z
			 M311.2,468.7L311.2,468.7c-0.3-0.1-0.5,0-0.8,0c-3.4,0-6.9,0.1-10.4,0.1c-151.9,0-275-28-275-62.5c0-1.6,0.3-3.2,0.9-4.8
			c0.1-0.3,0.2-0.5,0.3-0.8c0.6-1.6,1.5-3.1,2.6-4.7c0.1-0.1,0.2-0.2,0.2-0.3c2.5-3.3,6.1-6.5,10.7-9.6
			c36.9-24.6,139.4-42.4,260.3-42.4c121.3,0,224.2,17.9,260.7,42.7c4.5,3.1,8,6.2,10.4,9.5c0.1,0.1,0.1,0.1,0.2,0.2
			c1.1,1.5,1.9,3.1,2.5,4.6c0.1,0.3,0.2,0.5,0.3,0.8c0.5,1.5,0.8,3.1,0.8,4.7C575,439.9,457.9,467.4,311.2,468.7z"/>
		<g>
			<g>
				<g>
					<g>
						<path fill="#FFFFFF" d="M418.7,547.8c0,19.9,0,29.9,0,49.9c-79.9,5.7-120,6.1-200,2.2c0-19.9,0-29.9,0-49.9
							C298.7,553.9,338.9,553.4,418.7,547.8 M418.7,535.3c-79.9,5.7-120,6.1-200,2.2c-6.9-0.3-12.5,4.9-12.5,11.8
							c0,19.9,0,29.9,0,49.9c0,6.9,5.6,12.8,12.5,13.1c80,3.9,120.1,3.4,200-2.2c6.9-0.5,12.5-6.5,12.5-13.4c0-19.9,0-29.9,0-49.9
							C431.2,539.9,425.6,534.8,418.7,535.3L418.7,535.3z"/>
					</g>
				</g>
				<g>
					<path fill="#FFFFFF" d="M262.5,588.9c-35-0.8-52.5-1.6-87.5-4.2c-3.4-0.3-6.2-3.3-6.2-6.7c0-5,0-7.5,0-12.5
						c0-3.4,2.8-6,6.2-5.8c34.9,2.6,52.5,3.5,87.5,4.2c3.4,0.1,6.2,2.9,6.2,6.4c0,5,0,7.5,0,12.5C268.7,586.2,265.9,589,262.5,588.9
						z"/>
				</g>
			</g>
		</g>
	</g>
</g>
<g id="Layer_1_1_">
</g>
</svg>
