<?xml version="1.0" encoding="iso-8859-1"?>
<!-- Generator: Adobe Illustrator 18.0.0, SVG Export Plug-In . SVG Version: 6.00 Build 0)  -->
<!DOCTYPE svg PUBLIC "-//W3C//DTD SVG 1.1//EN" "http://www.w3.org/Graphics/SVG/1.1/DTD/svg11.dtd">
<svg version="1.1" xmlns="http://www.w3.org/2000/svg" xmlns:xlink="http://www.w3.org/1999/xlink" x="0px" y="0px"
	 viewBox="0 0 48 43" style="enable-background:new 0 0 48 43;" xml:space="preserve">
<g id="bench">
	<g>
		<g>
			<g>
				<path d="M3.999,29H1c-0.55,0-1,0.45-1,1c0,0.55,0.45,1,1,1h2.999V29z"/>
			</g>
			<g>
				<g>
					<rect x="8.999" y="29" width="31.003" height="2"/>
				</g>
				<g>
					<path d="M47,29h-2.997v2H47c0.55,0,1-0.45,1-1C48,29.45,47.55,29,47,29z"/>
				</g>
			</g>
		</g>
		<g>
			<g>
				<rect x="36.003" y="13.503" width="3" height="1"/>
			</g>
		</g>
		<g>
			<g>
				<rect x="36.003" y="11.503" width="1" height="3"/>
			</g>
		</g>
		<g>
			<path d="M27.001,16.93v11.071c0,0.551-0.448,1-1,1c-0.552,0-1-0.449-1-1V16.931c-0.698-0.088-1.369-0.263-2-0.52v11.59
				c0,1.654,1.346,3,3,3c1.654,0,3-1.346,3-3V16.411C28.37,16.667,27.699,16.843,27.001,16.93z"/>
		</g>
		<g>
			<g>
				<g>
					<path d="M34.999,21.5c1.933,0,3.5,1.567,3.5,3.5s-1.567,3.5-3.5,3.5c-1.933,0-3.5-1.567-3.5-3.5S33.066,21.5,34.999,21.5
						 M34.999,19.5c-3.033,0-5.5,2.467-5.5,5.5s2.467,5.5,5.5,5.5c3.033,0,5.5-2.467,5.5-5.5S38.031,19.5,34.999,19.5L34.999,19.5z"
						/>
				</g>
			</g>
		</g>
		<g>
			<g>
				<g>
					<path d="M26.001,2c3.866,0,7,3.134,7,7s-3.134,7-7,7s-7-3.134-7-7S22.135,2,26.001,2 M26.001,0c-4.963,0-9,4.037-9,9
						s4.037,9,9,9c4.963,0,9-4.037,9-9S30.963,0,26.001,0L26.001,0z"/>
				</g>
			</g>
		</g>
		<g>
			<g>
				<g>
					<path d="M26.001,8c0.552,0,1,0.448,1,1c0,0.552-0.448,1-1,1c-0.552,0-1-0.448-1-1C25.001,8.448,25.448,8,26.001,8 M26.001,7
						c-1.103,0-2,0.897-2,2s0.897,2,2,2c1.103,0,2-0.897,2-2S27.104,7,26.001,7L26.001,7z"/>
				</g>
			</g>
		</g>
		<g>
			<g>
				<g>
					<path d="M43.002,10.001v29.999h-2V10.001H43.002 M44.002,8.001h-4c-0.55,0-1,0.45-1,1v31.999c0,0.55,0.45,1,1,1h4
						c0.55,0,1-0.45,1-1V9.001C45.002,8.451,44.552,8.001,44.002,8.001L44.002,8.001z"/>
				</g>
			</g>
		</g>
		<g>
			<g>
				<path d="M28.001,24.001v2h2.619c-0.074-0.323-0.121-0.656-0.121-1.001c0-0.344,0.047-0.677,0.12-0.999H28.001z"/>
			</g>
			<g>
				<path d="M34.999,29.5c-0.77,0-1.484-0.212-2.118-0.554c-0.122,0.032-0.249,0.055-0.381,0.055H7.999v10.5
					c0,0.827-0.673,1.5-1.5,1.5c-0.827,0-1.5-0.673-1.5-1.5V27.502c0-0.397,0.157-0.774,0.442-1.059
					c0.285-0.285,0.661-0.442,1.06-0.442h17.5v-2h-17.5c-0.933,0-1.812,0.365-2.474,1.028c-0.663,0.663-1.028,1.542-1.028,2.473
					V39.5c0,1.93,1.57,3.5,3.5,3.5c1.93,0,3.5-1.57,3.5-3.5v-8.5H32.5c1.205,0,2.269-0.612,2.899-1.541
					C35.265,29.472,35.136,29.5,34.999,29.5z"/>
			</g>
		</g>
		<g>
			<rect x="38.655" y="28.672" width="0.469" height="0.406"/>
		</g>
	</g>
</g>
<g id="Layer_1">
</g>
</svg>
