<?xml version="1.0" encoding="utf-8"?>
<!-- Generator: Adobe Illustrator 18.1.1, SVG Export Plug-In . SVG Version: 6.00 Build 0)  -->
<svg version="1.1" id="Layer_1" xmlns="http://www.w3.org/2000/svg" xmlns:xlink="http://www.w3.org/1999/xlink" x="0px" y="0px"
	 viewBox="0 0 600 1000" enable-background="new 0 0 600 1000" xml:space="preserve">
<g id="bicep">
	<g>
		<path fill="#FFFFFF" d="M135.6,811.1c-14.7,0-29.6-2.4-44.4-7C27.2,784-6.4,727.8,1,653.7C9.2,572.6,48.6,545.1,61.5,536
			c29.6-20.7,59.8-28.1,101-25.3c43.1,2.9,70.8,23.6,85.4,36.3c11.7-9.9,33.6-24.7,63.3-27.9c24.4-2.6,43.8,2.3,58.8,9.5
			c-2.4-9.6-4-19.9-4-30c0-6.4,0.2-14.9,0.4-24.6c0.7-31.4,2-89.8-5.1-105.6c-8.3-18.4-20.3-33.2-25.9-36.5
			c-8.4,3.2-20.5,5.2-31.2,5.2c-10.7,0-19.4-1.9-25.8-5.8c-2.7-1.6-5.1-2.4-7-2.4c-0.9,0-2.3,0.2-3.8,1.6
			c-8.6,8.6-29.7,8.9-32.1,8.9c-24.1,0-41.5-10.5-47.6-28.3c-8.7-8.8-18.1-26-6.4-44.2c2.7-4.2,6.9-12.8,11.3-21.9
			c16.8-34.7,27.9-56,44.1-56c0.8,0,2.3,0.1,3.1,0.3c11.3,2.1,107.6,25.4,132.3,38.4c20.9,11,46,42.3,61,61c2.6,3.2,4.8,6,6.6,8.2
			c9.2,11.1,116.9,160.4,135.5,215l4.1,12c16.3,47.4,29.2,84.8,13.3,111.3c-14.8,24.7-62.9,68.6-104.9,95.7l-11.6,7.6
			c-38.1,24.9-85.6,56-128.5,60.5c-13.6,1.4-31.2,2.2-51.1,2.2c-32.9,0-74.9-2.2-96.4-6.9C190.4,800,167.4,811.1,135.6,811.1z
			 M146.4,536c-27.8,0-48.8,6.4-70,21.2c-18.3,12.8-43.3,37-49.6,99C20.6,718.2,46.9,763,98.9,779.3c12.3,3.8,24.7,5.8,36.7,5.8
			c33.5,0,54.6-15.3,54.8-15.4c3.3-2.5,7.7-3.2,11.7-2c13,4.1,54.6,7.3,94.7,7.3c18.9,0,35.7-0.7,48.3-2c36.7-3.9,81.2-33,117-56.4
			l11.7-7.6c37.9-24.5,84-66.2,96.7-87.3c9.7-16.1-1.5-48.5-15.6-89.5l-4.1-12c-16.3-47.7-119-192.5-130.9-206.7
			c-1.9-2.2-4.2-5.2-6.9-8.6c-12.8-16-36.7-45.8-52.9-54.3c-18.5-9.7-100.6-30.5-121.4-35.1c-6.2,6.7-17.1,29.4-22.6,40.8
			c-4.9,10.2-9.2,19.1-12.8,24.6c-3.8,5.9,2.9,11.9,4.2,13.1c2.2,1.8,3.8,4.4,4.4,7.1c2.4,10.3,14.1,12.4,23.6,12.4
			c7.3,0,12.8-1.4,14.7-2.2c10.8-10,26.8-11.1,41.5-2.2c1.7,1,5.8,2.1,12.4,2.1c9.2,0,18.8-2,23.1-4c2.5-1.1,5.2-1.7,7.9-1.7
			c25.9,0,48.7,50.1,49.7,52.2c8.8,19.6,8.5,64.5,7.3,116.9c-0.2,9.4-0.4,17.7-0.4,24c0,27.8,16.9,60.9,17.1,61.3
			c3,5.7,1.2,12.8-4,16.5c-5.3,3.7-12.5,3-16.9-1.7l-1-1.1c-8.9-9.6-31.1-33.2-73-28.7c-34.4,3.7-55.7,28-55.9,28.2
			c-4.6,5.4-12.7,6-18.2,1.5c-1-0.9-2.3-2-3.8-3.4c-11.3-10.3-34.9-31.8-75.2-34.5C155.8,536.2,151,536,146.4,536z"/>
	</g>
</g>
<g id="Layer_1_1_">
</g>
</svg>
