<?xml version="1.0" encoding="iso-8859-1"?>
<!-- Generator: Adobe Illustrator 18.0.0, SVG Export Plug-In . SVG Version: 6.00 Build 0)  -->
<!DOCTYPE svg PUBLIC "-//W3C//DTD SVG 1.1//EN" "http://www.w3.org/Graphics/SVG/1.1/DTD/svg11.dtd">
<svg version="1.1" xmlns="http://www.w3.org/2000/svg" xmlns:xlink="http://www.w3.org/1999/xlink" x="0px" y="0px"
	 viewBox="0 0 48.004 40.435" style="enable-background:new 0 0 48.004 40.435;" xml:space="preserve">
<g id="deadlift">
	<g>
		<g>
			<g>
				<path d="M29.886,23.735l-1.885-8.803l0.001,22.003c0,0.966-0.947,1.705-1.92,1.443c-0.626-0.168-1.081-0.812-1.081-1.531V25.435
					c0-0.552-0.448-1-1-1c-0.552,0-1,0.448-1,1l-0.001,11.5c0,0.398-0.157,0.774-0.441,1.059c-0.285,0.285-0.66,0.441-1.058,0.441
					c-0.139,0-0.281-0.02-0.422-0.057c-0.628-0.169-1.083-0.816-1.083-1.538L20,13.434l-2.002,9.35L17.996,36.84
					c0,1.636,1.054,3.062,2.562,3.469c0.31,0.084,0.628,0.126,0.942,0.126h0.001c0.932,0,1.81-0.365,2.473-1.027
					c0.009-0.009,0.019-0.019,0.028-0.029c0.421,0.44,0.954,0.769,1.562,0.931c0.309,0.083,0.624,0.125,0.938,0.125
					c1.93,0,3.5-1.57,3.5-3.5l-0.001-12.842C29.953,23.979,29.913,23.86,29.886,23.735z"/>
			</g>
			<g>
				<path d="M26.881,8.117c-0.78,0.858-1.894,1.407-3.142,1.407c-1.194,0-2.271-0.496-3.045-1.29
					c-1.107,0.388-1.993,1.247-2.416,2.339c0.094,0.006,0.188,0.011,0.283,0.031c0.694,0.149,1.223,0.648,1.453,1.271
					c0.069-1.04,0.929-1.868,1.987-1.868h4c0.898,0,1.651,0.599,1.903,1.415c0.28-0.402,0.702-0.707,1.216-0.817
					c0.205-0.044,0.407-0.045,0.606-0.025C29.252,9.347,28.188,8.414,26.881,8.117z"/>
			</g>
		</g>
		<g>
			<g>
				<path d="M23.739,2c1.802,0,3.262,1.46,3.262,3.262s-1.46,3.262-3.262,3.262s-3.262-1.46-3.262-3.262S21.937,2,23.739,2
					 M23.739,0c-2.901,0-5.262,2.361-5.262,5.262s2.361,5.262,5.262,5.262s5.262-2.361,5.262-5.262S26.64,0,23.739,0L23.739,0z"/>
			</g>
		</g>
		<g>
			<g>
				<polygon points="24.002,25.471 24.002,25.435 24.002,25.471 				"/>
			</g>
			<path d="M33.826,23.471c-0.069,0.858-0.683,1.612-1.565,1.801c-1.076,0.23-2.144-0.461-2.374-1.537l-0.056-0.264H29h-0.998
				h-10.15l-0.056,0.264c-0.23,1.076-1.299,1.767-2.374,1.537c-0.882-0.189-1.496-0.943-1.565-1.801H8.003v2h19.998h0.998h11.002v-2
				H33.826z"/>
		</g>
		<g>
			<g>
				<path style="fill:#1D1D1B;" d="M7,18.471v11.999H2V18.471H7 M7,16.471H2c-1.1,0-2,0.9-2,2v11.999c0,1.1,0.9,2,2,2h5
					c1.1,0,2-0.9,2-2V18.471C9,17.371,8.1,16.471,7,16.471L7,16.471z"/>
			</g>
		</g>
		<g>
			<g>
				<path d="M31.843,26.316L31.843,26.316c-1.406,0-2.641-0.997-2.934-2.372l-2.303-10.756c-0.168-0.781-0.019-1.583,0.417-2.257
					c0.436-0.674,1.106-1.138,1.889-1.305c0.205-0.044,0.416-0.066,0.626-0.066c1.406,0,2.641,0.997,2.934,2.372l2.303,10.756
					c0.168,0.781,0.019,1.583-0.417,2.257c-0.436,0.674-1.106,1.138-1.889,1.305C32.264,26.294,32.053,26.316,31.843,26.316z
					 M29.537,11.56c-0.069,0-0.139,0.007-0.207,0.022c-0.26,0.055-0.483,0.21-0.629,0.436c-0.146,0.226-0.196,0.492-0.141,0.751
					l2.303,10.756c0.113,0.526,0.654,0.886,1.187,0.769c0.26-0.055,0.483-0.21,0.629-0.436c0.147-0.225,0.196-0.492,0.141-0.751
					l-2.303-10.756C30.418,11.892,30.006,11.56,29.537,11.56z"/>
			</g>
		</g>
		<g>
			<rect x="3.99" y="17.438" style="fill:#1D1D1B;" width="1" height="13.999"/>
		</g>
		<g>
			<g>
				<path style="fill:#1D1D1B;" d="M46.004,18.471v11.999h-5V18.471H46.004 M46.004,16.471h-5c-1.1,0-2,0.9-2,2v11.999
					c0,1.1,0.9,2,2,2h5c1.1,0,2-0.9,2-2V18.471C48.004,17.371,47.104,16.471,46.004,16.471L46.004,16.471z"/>
			</g>
		</g>
		<g>
			<g>
				<path d="M15.838,26.316c-0.21,0-0.42-0.022-0.627-0.066c-0.781-0.167-1.452-0.63-1.888-1.305
					c-0.436-0.674-0.584-1.476-0.417-2.257l2.303-10.756c0.337-1.58,1.975-2.646,3.561-2.306c0.781,0.168,1.452,0.631,1.888,1.305
					c0.436,0.674,0.584,1.476,0.417,2.257l-2.303,10.756C18.478,25.319,17.244,26.316,15.838,26.316z M18.144,11.56
					c-0.469,0-0.881,0.332-0.979,0.79l-2.303,10.757c-0.056,0.259-0.006,0.526,0.14,0.751c0.146,0.226,0.369,0.38,0.627,0.436
					c0.532,0.111,1.075-0.243,1.188-0.769l2.303-10.756c0.056-0.259,0.006-0.526-0.14-0.751c-0.146-0.226-0.369-0.38-0.628-0.436
					C18.283,11.568,18.213,11.56,18.144,11.56z"/>
			</g>
		</g>
		<g>
			<rect x="42.984" y="17.463" style="fill:#1D1D1B;" width="1" height="13.999"/>
		</g>
	</g>
</g>
<g id="Layer_1">
</g>
</svg>
