<?xml version="1.0" encoding="iso-8859-1"?>
<!-- Generator: Adobe Illustrator 18.0.0, SVG Export Plug-In . SVG Version: 6.00 Build 0)  -->
<!DOCTYPE svg PUBLIC "-//W3C//DTD SVG 1.1//EN" "http://www.w3.org/Graphics/SVG/1.1/DTD/svg11.dtd">
<svg version="1.1" xmlns="http://www.w3.org/2000/svg" xmlns:xlink="http://www.w3.org/1999/xlink" x="0px" y="0px"
	 viewBox="0 0 48.003 20" style="enable-background:new 0 0 48.003 20;" xml:space="preserve">
<g id="dumbbell-3">
	<g>
		<g>
			<path d="M31.334,8.018C30.391,8.018,26.778,7,24,7c-2.777,0-6.455,1.018-7.398,1.018C15.887,8.018,15,7,15,7v6
				c0,0,0.887-1.018,1.602-1.018C17.545,11.982,21.223,13,24,13c2.777,0,6.391-1.018,7.334-1.018C32.05,11.982,33,13,33,13V7
				C33,7,32.05,8.018,31.334,8.018z"/>
		</g>
		<g>
			<path d="M12,2l2,3l0,10l-2,3H4l-2-3V5l2-3H12 M13.07,0H12H4H2.93L2.336,0.891l-2,3L0,4.394V5v10v0.606l0.336,0.504l2,3L2.93,20H4
				h8h1.07l0.594-0.891l2-3L16,15.606V15l0-10V4.394l-0.336-0.504l-2-3L13.07,0L13.07,0z"/>
		</g>
		<g>
			<rect x="1" y="9.5" width="14" height="1"/>
		</g>
		<g>
			<rect x="4" y="1.5" width="1" height="18"/>
		</g>
		<g>
			<rect x="11" y="1.5" width="1" height="18"/>
		</g>
		<g>
			<path d="M44.003,2l2,3l0,10l-2,3h-8l-2-3V5l2-3H44.003 M45.073,0h-1.07h-8h-1.07l-0.594,0.891l-2,3l-0.336,0.504V5v10v0.606
				l0.336,0.504l2,3L34.933,20h1.07h8h1.07l0.594-0.891l2-3l0.336-0.504V15l0-10V4.394l-0.336-0.504l-2-3L45.073,0L45.073,0z"/>
		</g>
		<g>
			<rect x="33.003" y="9.5" width="14" height="1"/>
		</g>
		<g>
			<rect x="36.003" y="1.5" width="1" height="18"/>
		</g>
		<g>
			<rect x="43.004" y="1.5" width="1" height="18"/>
		</g>
	</g>
</g>
<g id="Layer_1">
</g>
</svg>
