<?xml version="1.0" encoding="iso-8859-1"?>
<!-- Generator: Adobe Illustrator 18.0.0, SVG Export Plug-In . SVG Version: 6.00 Build 0)  -->
<!DOCTYPE svg PUBLIC "-//W3C//DTD SVG 1.1//EN" "http://www.w3.org/Graphics/SVG/1.1/DTD/svg11.dtd">
<svg version="1.1" xmlns="http://www.w3.org/2000/svg" xmlns:xlink="http://www.w3.org/1999/xlink" x="0px" y="0px"
	 viewBox="0 0 48.003 24" style="enable-background:new 0 0 48.003 24;" xml:space="preserve">
<g id="dumbbell-2">
	<g>
		<g>
			<path d="M32.974,10.018C31.822,10.018,27.405,9,24.01,9s-7.889,1.018-9.041,1.018C14.094,10.018,13.01,9,13.01,9v6
				c0,0,1.083-1.018,1.959-1.018c1.152,0,5.647,1.018,9.041,1.018s7.812-1.018,8.964-1.018c0.875,0,2.036,1.018,2.036,1.018V9
				C35.01,9,33.849,10.018,32.974,10.018z"/>
		</g>
		<g>
			<path d="M10,2c1.1,0,2,0.9,2,2v16c0,1.1-0.9,2-2,2H4c-1.1,0-2-0.9-2-2V4c0-1.1,0.9-2,2-2H10 M10,0H4C1.794,0,0,1.794,0,4v16
				c0,2.206,1.794,4,4,4h6c2.206,0,4-1.794,4-4V4C14,1.794,12.205,0,10,0L10,0z"/>
		</g>
		<g>
			<path d="M44.003,2c1.1,0,2,0.9,2,2v16c0,1.1-0.9,2-2,2h-6c-1.1,0-2-0.9-2-2V4c0-1.1,0.9-2,2-2H44.003 M44.003,0h-6
				c-2.206,0-4,1.794-4,4v16c0,2.206,1.794,4,4,4h6c2.206,0,4-1.794,4-4V4C48.003,1.794,46.209,0,44.003,0L44.003,0z"/>
		</g>
	</g>
</g>
<g id="Layer_1">
</g>
</svg>
