<?xml version="1.0" encoding="iso-8859-1"?>
<!-- Generator: Adobe Illustrator 18.0.0, SVG Export Plug-In . SVG Version: 6.00 Build 0)  -->
<!DOCTYPE svg PUBLIC "-//W3C//DTD SVG 1.1//EN" "http://www.w3.org/Graphics/SVG/1.1/DTD/svg11.dtd">
<svg version="1.1" xmlns="http://www.w3.org/2000/svg" xmlns:xlink="http://www.w3.org/1999/xlink" x="0px" y="0px"
	 viewBox="0 0 48.005 30" style="enable-background:new 0 0 48.005 30;" xml:space="preserve">
<g id="dumbbell-1">
	<g>
		<g>
			<path d="M11.012,2c0.552,0,1,0.448,1,1v24c0,0.552-0.448,1-1,1h-2c-0.552,0-1-0.448-1-1V3c0-0.552,0.448-1,1-1H11.012 M11.012,0
				h-2c-1.654,0-3,1.346-3,3v24c0,1.654,1.346,3,3,3h2c1.654,0,3-1.346,3-3V3C14.012,1.346,12.666,0,11.012,0L11.012,0z"/>
		</g>
		<g>
			<path d="M6.011,5v20h-2c-0.552,0-1-0.448-1-1V6c0-0.552,0.448-1,1-1H6.011 M8.011,3h-2h-2c-1.654,0-3,1.346-3,3v18
				c0,1.654,1.346,3,3,3h2h2v-2V5V3L8.011,3z"/>
		</g>
		<g>
			<path d="M39.015,2c0.552,0,1,0.448,1,1v24c0,0.552-0.448,1-1,1h-2c-0.552,0-1-0.448-1-1V3c0-0.552,0.448-1,1-1H39.015 M39.015,0
				h-2c-1.654,0-3,1.346-3,3v24c0,1.654,1.346,3,3,3h2c1.654,0,3-1.346,3-3V3C42.015,1.346,40.669,0,39.015,0L39.015,0z"/>
		</g>
		<g>
			<path d="M44.016,5c0.552,0,1,0.448,1,1v18c0,0.552-0.448,1-1,1h-2V5H44.016 M44.016,3h-2h-2v2v20v2h2h2c1.654,0,3-1.346,3-3V6
				C47.016,4.346,45.67,3,44.016,3L44.016,3z"/>
		</g>
		<g>
			<rect x="13.001" y="12" width="22" height="6"/>
		</g>
		<g>
			<path d="M2,18H1c-0.552,0-1-0.448-1-1v-4c0-0.552,0.448-1,1-1h1V18z"/>
		</g>
		<g>
			<path d="M47.005,18h-1v-6h1c0.552,0,1,0.448,1,1v4C48.005,17.552,47.557,18,47.005,18z"/>
		</g>
	</g>
</g>
<g id="Layer_1">
</g>
</svg>
