<?xml version="1.0" encoding="iso-8859-1"?>
<!-- Generator: Adobe Illustrator 18.0.0, SVG Export Plug-In . SVG Version: 6.00 Build 0)  -->
<!DOCTYPE svg PUBLIC "-//W3C//DTD SVG 1.1//EN" "http://www.w3.org/Graphics/SVG/1.1/DTD/svg11.dtd">
<svg version="1.1" xmlns="http://www.w3.org/2000/svg" xmlns:xlink="http://www.w3.org/1999/xlink" x="0px" y="0px"
	 viewBox="0 0 50 32" style="enable-background:new 0 0 50 32;" xml:space="preserve">
<g id="gym-bag">
	<g>
		<g>
			<path d="M44,9.999c2.2,0,4,1.8,4,4v12c0,2.2-1.8,4-4,4H6c-2.2,0-4-1.8-4-4v-12c0-2.2,1.8-4,4-4H44 M44,7.999H6
				c-3.308,0-6,2.692-6,6v12c0,3.308,2.692,6,6,6h38c3.308,0,6-2.692,6-6v-12C50,10.691,47.308,7.999,44,7.999L44,7.999z"/>
		</g>
		<g>
			<g>
				<path d="M32.113,1.004C32.351,1.27,32.5,1.616,32.5,2c0,0.39-0.153,0.742-0.398,1.009c2.708,0.056,4.897,2.268,4.897,4.99v0.999
					h2V7.999C38.999,4.177,35.92,1.066,32.113,1.004z"/>
			</g>
			<g>
				<path d="M17.5,2c0-0.383,0.149-0.73,0.386-0.995c-3.806,0.062-6.885,3.173-6.885,6.994v0.999h2V7.999
					c0-2.721,2.188-4.933,4.896-4.99C17.653,2.742,17.5,2.39,17.5,2z"/>
			</g>
		</g>
		<g>
			<path d="M13,9v22H9V9H13 M14,8h-1H9H8v1v22v1h1h4h1v-1V9V8L14,8z"/>
		</g>
		<g>
			<path d="M41.003,9v22h-4V9H41.003 M42.003,8h-1h-4h-1v1v22v1h1h4h1v-1V9V8L42.003,8z"/>
		</g>
		<g>
			<g>
				<path d="M31,1c0.552,0,1,0.448,1,1s-0.448,1-1,1H19c-0.552,0-1-0.448-1-1s0.448-1,1-1H31 M31,0H19c-1.103,0-2,0.897-2,2
					s0.897,2,2,2h12c1.103,0,2-0.897,2-2S32.103,0,31,0L31,0z"/>
			</g>
		</g>
		<g>
			<rect x="17" y="14" width="16" height="1"/>
		</g>
		<g>
			<rect x="18" y="15" width="2" height="3"/>
		</g>
	</g>
</g>
<g id="Layer_1">
</g>
</svg>
