<?xml version="1.0" encoding="iso-8859-1"?>
<!-- Generator: Adobe Illustrator 18.0.0, SVG Export Plug-In . SVG Version: 6.00 Build 0)  -->
<!DOCTYPE svg PUBLIC "-//W3C//DTD SVG 1.1//EN" "http://www.w3.org/Graphics/SVG/1.1/DTD/svg11.dtd">
<svg version="1.1" xmlns="http://www.w3.org/2000/svg" xmlns:xlink="http://www.w3.org/1999/xlink" x="0px" y="0px"
	 viewBox="0 0 37.692 48" style="enable-background:new 0 0 37.692 48;" xml:space="preserve">
<g id="hand-grip">
	<g>
		<g>
			<path d="M10.186,21.558c0.113,0,0.228,0.019,0.339,0.06l3.759,1.368c0.517,0.188,0.786,0.765,0.598,1.282L7.699,44.002
				c-0.147,0.405-0.533,0.658-0.942,0.658c-0.113,0-0.228-0.019-0.34-0.06l-3.759-1.368c-0.517-0.188-0.786-0.765-0.598-1.282
				l7.182-19.734C9.391,21.811,9.777,21.558,10.186,21.558 M10.186,19.558L10.186,19.558c-1.258,0-2.392,0.793-2.822,1.974
				L0.182,41.265c-0.274,0.752-0.238,1.566,0.101,2.293c0.339,0.727,0.94,1.278,1.692,1.552l3.759,1.368
				c0.329,0.12,0.674,0.181,1.024,0.181c1.258,0,2.392-0.793,2.821-1.974l7.182-19.733c0.274-0.752,0.238-1.566-0.101-2.293
				c-0.339-0.727-0.94-1.278-1.692-1.552l-3.759-1.368C10.88,19.619,10.536,19.558,10.186,19.558L10.186,19.558z"/>
		</g>
		<g>
			<path d="M14.595,13.362l-2.873,7.894l1.879,0.684l2.307-6.338C15.388,14.911,14.942,14.164,14.595,13.362z"/>
		</g>
		<g>
			<path d="M24.691,2c3.866,0,7,3.134,7,7s-3.134,7-7,7s-7-3.134-7-7S20.825,2,24.691,2 M24.691,0c-4.963,0-9,4.037-9,9s4.037,9,9,9
				s9-4.037,9-9S29.654,0,24.691,0L24.691,0z"/>
		</g>
		<g>
			<rect x="31.691" y="9" width="2" height="13.25"/>
		</g>
		<g>
			<path d="M34.692,23c0.55,0,1,0.45,1,1v21c0,0.55-0.45,1-1,1h-4c-0.55,0-1-0.45-1-1V24c0-0.55,0.45-1,1-1H34.692 M34.692,21h-4
				c-1.654,0-3,1.346-3,3v21c0,1.654,1.346,3,3,3h4c1.654,0,3-1.346,3-3V24C37.692,22.346,36.346,21,34.692,21L34.692,21z"/>
		</g>
	</g>
</g>
<g id="Layer_1">
</g>
</svg>
