<?xml version="1.0" encoding="iso-8859-1"?>
<!-- Generator: Adobe Illustrator 18.0.0, SVG Export Plug-In . SVG Version: 6.00 Build 0)  -->
<!DOCTYPE svg PUBLIC "-//W3C//DTD SVG 1.1//EN" "http://www.w3.org/Graphics/SVG/1.1/DTD/svg11.dtd">
<svg version="1.1" xmlns="http://www.w3.org/2000/svg" xmlns:xlink="http://www.w3.org/1999/xlink" x="0px" y="0px"
	 viewBox="0 0 36.314 48" style="enable-background:new 0 0 36.314 48;" xml:space="preserve">
<g id="kettlebell">
	<g>
		<g>
			<path d="M17.986,43.49c-8.087,0-9.022-4.846-9.022-8.49c0-4.682,4.048-8.49,9.022-8.49c4.976,0,9.024,3.809,9.024,8.49
				C27.01,39.198,25.938,43.49,17.986,43.49z M17.986,27.51c-4.424,0-8.022,3.36-8.022,7.49c0,3.704,0.953,7.49,8.022,7.49
				c6.659,0,8.024-2.994,8.024-7.49C26.01,30.87,22.41,27.51,17.986,27.51z"/>
		</g>
		<g>
			<path d="M18.058,2c0.039,0,0.075,0,0.108,0c1.204,0.017,7.518,0.077,10.921,2.053c4.295,2.494,6.03,6.546,4.886,11.41
				c-0.744,3.162-3.367,6.688-4.473,8.073c2.076,2.372,3.324,5.406,3.324,8.714c0,7.594-2.288,13.75-14.667,13.75
				C6.187,46,3.49,39.844,3.49,32.25c0-3.308,1.248-6.342,3.324-8.715c-1.106-1.385-3.729-4.91-4.473-8.073
				c-1.145-4.864,0.591-8.916,4.886-11.41C10.542,2.129,16.595,2,18.058,2 M11.162,20.162c2.079-1.06,4.462-1.662,6.995-1.662
				c2.533,0,4.916,0.602,6.995,1.662c1.238-1.535,3.054-4.205,3.467-5.958c0.581-2.472-0.126-4.136-2.294-5.395
				C24.766,7.904,20.658,7.5,18.208,7.5c-0.029,0-0.059,0-0.088,0c-2.464,0-6.571,0.403-8.13,1.309
				c-2.168,1.259-2.876,2.923-2.294,5.395C8.107,15.957,9.923,18.625,11.162,20.162 M18.058,0C16.221,0,9.937,0.168,6.224,2.323
				c-5.048,2.93-7.173,7.887-5.829,13.598c0.649,2.76,2.448,5.627,3.891,7.599c-1.812,2.573-2.795,5.618-2.795,8.73
				C1.49,42.848,6.942,48,18.157,48c14.939,0,16.667-8.989,16.667-15.75c0-3.112-0.983-6.157-2.795-8.729
				c1.443-1.972,3.242-4.839,3.891-7.6c1.343-5.711-0.782-10.667-5.829-13.597c-3.148-1.828-8.179-2.272-11.845-2.322L18.194,0
				L18.058,0L18.058,0z M11.799,17.688c-0.999-1.405-1.935-2.999-2.156-3.942c-0.38-1.614-0.051-2.393,1.351-3.208
				C11.929,9.995,15.326,9.5,18.12,9.5h0.088c2.787,0,6.177,0.495,7.113,1.038c1.402,0.815,1.731,1.594,1.351,3.208
				c-0.222,0.943-1.158,2.537-2.156,3.942c-2.006-0.781-4.175-1.188-6.359-1.188C15.973,16.5,13.805,16.908,11.799,17.688
				L11.799,17.688z"/>
		</g>
	</g>
</g>
<g id="Layer_1">
</g>
</svg>
