<?xml version="1.0" encoding="iso-8859-1"?>
<!-- Generator: Adobe Illustrator 18.0.0, SVG Export Plug-In . SVG Version: 6.00 Build 0)  -->
<!DOCTYPE svg PUBLIC "-//W3C//DTD SVG 1.1//EN" "http://www.w3.org/Graphics/SVG/1.1/DTD/svg11.dtd">
<svg version="1.1" xmlns="http://www.w3.org/2000/svg" xmlns:xlink="http://www.w3.org/1999/xlink" x="0px" y="0px"
	 viewBox="0 0 46.765 21.312" style="enable-background:new 0 0 46.765 21.312;" xml:space="preserve">
<g id="lifting-shoes">
	<g>
		<g>
			<path style="fill:#1D1D1B;" d="M46.665,19.85c0.42-1.037-0.588-2.721-0.974-4.163c-0.471,0.358-1.694,1.102-3.609,1.279
				c-6.224,0.575-16.063,1.109-18.5,1.731c-2.663,0.68-9,0.907-10.667,0.824c-1.667-0.083-8.611-0.146-11.167-0.755
				c-0.503-0.12-1.012-0.538-1.486-0.955c-0.363,0.324-0.243,0.315-0.243,1.268c0,1,4.667,2.232,9.813,2.232
				c3.146,0,32.792,0,33.917,0S46.3,20.752,46.665,19.85z"/>
		</g>
		<g>
			<g>
				<path style="fill:#1D1D1B;" d="M21.249,7.813c-2.68,1.847-5.643,3.853-6.161,3.98c-0.632,0.091-1.647-0.806-2.052-1.256
					l-0.745,0.667c0.154,0.172,1.465,1.595,2.714,1.595c0.079,0,0.157-0.005,0.235-0.017c0.568-0.087,2.429-1.292,6.435-4.049
					L21.249,7.813z"/>
			</g>
			<g>
				<path style="fill:#1D1D1B;" d="M28.107,3.174c-0.354,0.177-1.22,0.752-2.541,1.658l0.427,0.919
					c1.252-0.859,2.239-1.521,2.561-1.682c0.82-0.409,2.242,0.726,2.673,1.157l0.707-0.707C31.713,4.295,29.719,2.368,28.107,3.174z
					"/>
			</g>
		</g>
		<g>
			<path style="fill:#1D1D1B;" d="M33.639,11.645c-0.795,0-1.602-0.194-2.333-0.583c-1.205-0.64-4.815-2.849-4.968-2.942
				l0.521-0.852c0.037,0.023,3.737,2.286,4.915,2.912c1.143,0.607,2.51,0.623,3.566,0.044c1.087-0.596,8.226-4.382,8.298-4.42
				l0.469,0.884c-0.072,0.038-7.205,3.82-8.286,4.413C35.159,11.464,34.405,11.645,33.639,11.645z"/>
		</g>
		<g>
			
				<rect x="20.02" y="13.246" transform="matrix(0.3783 0.9257 -0.9257 0.3783 27.774 -13.8617)" style="fill:#1D1D1B;" width="8.372" height="1"/>
		</g>
		<g>
			
				<rect x="16.24" y="13.183" transform="matrix(0.3783 0.9257 -0.9257 0.3783 26.0804 -10.4655)" style="fill:#1D1D1B;" width="9.182" height="2"/>
		</g>
		<g>
			
				<rect x="13.401" y="14.433" transform="matrix(0.3783 0.9257 -0.9257 0.3783 25.0615 -6.4485)" style="fill:#1D1D1B;" width="7.861" height="2"/>
		</g>
		<g>
			<path style="fill:#1D1D1B;" d="M15.363,10.673c-0.193,0-0.377-0.112-0.459-0.301l-0.988-2.276
				c-0.109-0.253,0.007-0.548,0.26-0.658c0.252-0.11,0.548,0.006,0.658,0.259l0.988,2.276c0.109,0.253-0.007,0.548-0.26,0.658
				C15.498,10.66,15.43,10.673,15.363,10.673z"/>
		</g>
		<g>
			<path style="fill:#1D1D1B;" d="M17.363,9.361c-0.193,0-0.377-0.112-0.459-0.301l-0.988-2.276
				c-0.109-0.253,0.007-0.548,0.26-0.658c0.251-0.11,0.548,0.006,0.658,0.259l0.988,2.276c0.109,0.253-0.007,0.548-0.26,0.658
				C17.498,9.347,17.43,9.361,17.363,9.361z"/>
		</g>
		<g>
			<path style="fill:#1D1D1B;" d="M19.426,8.048c-0.193,0-0.377-0.112-0.459-0.301l-0.988-2.276
				c-0.109-0.253,0.007-0.548,0.26-0.658c0.252-0.11,0.548,0.006,0.658,0.259l0.988,2.276c0.109,0.253-0.007,0.548-0.26,0.658
				C19.56,8.035,19.492,8.048,19.426,8.048z"/>
		</g>
		<g>
			<path style="fill:#1D1D1B;" d="M26.676,3.548c-0.193,0-0.377-0.112-0.459-0.301l-0.988-2.276
				c-0.109-0.253,0.007-0.548,0.26-0.658c0.252-0.11,0.548,0.006,0.658,0.259l0.988,2.276c0.109,0.253-0.007,0.548-0.26,0.658
				C26.81,3.535,26.742,3.548,26.676,3.548z"/>
		</g>
		<g>
			<g>
				<path style="fill:#1D1D1B;" d="M24.466,11.055c-0.215,0-0.423-0.045-0.618-0.133l-1.649-0.745
					c-0.328-0.148-0.592-0.409-0.743-0.735l-2.261-4.862c-0.349-0.75-0.023-1.644,0.727-1.993l2.876-1.337
					c0.732-0.339,1.656,0.002,1.993,0.728l2.261,4.863c0.152,0.328,0.182,0.697,0.084,1.042l-0.494,1.742
					c-0.119,0.42-0.415,0.768-0.811,0.952l-0.732,0.34C24.897,11.009,24.685,11.055,24.466,11.055z M23.43,2.11
					c-0.072,0-0.144,0.016-0.21,0.047l-2.876,1.337c-0.25,0.116-0.359,0.414-0.243,0.664l2.262,4.863
					c0.051,0.109,0.139,0.196,0.247,0.245l1.65,0.746c0.133,0.06,0.285,0.06,0.418-0.002l0.731-0.34
					c0.132-0.061,0.23-0.177,0.27-0.317l0.494-1.742c0.033-0.115,0.023-0.238-0.028-0.348l-2.26-4.862
					C23.803,2.223,23.624,2.11,23.43,2.11z"/>
			</g>
		</g>
		<g>
			<path style="fill:#1D1D1B;" d="M45.54,14.787c0-1.625-0.5-5.083-0.708-6.208c-0.208-1.125-2.375-6-2.917-6.583
				c-0.169-0.182-0.382-0.254-0.615-0.254c-0.517,0-1.134,0.355-1.593,0.671c-0.667,0.458-1.083,1.042-1.083,2.042
				s-0.917,1.793-2.917,1.793s-3.917-1.79-3.917-1.79s0.79-1.83,0.124-2.997C31.35,0.476,30.134,0,29.217,0
				c-0.17,0-0.33,0.016-0.474,0.049c-0.396,0.09-2.257,1.148-4.299,2.367l0.423,0.91c1.947-1.161,3.714-2.175,4.098-2.302
				C29.013,1.013,29.096,1,29.217,1c0.621,0,1.472,0.335,1.827,0.956c0.312,0.546,0.017,1.656-0.173,2.105l-0.279,0.647l0.515,0.481
				c0.09,0.084,2.233,2.059,4.6,2.059c2.888,0,3.917-1.443,3.917-2.793c0-0.569,0.17-0.888,0.65-1.218
				c0.534-0.367,0.832-0.462,0.96-0.487c0.552,0.834,2.437,5.047,2.615,6.011c0.207,1.117,0.692,4.514,0.692,6.026
				c0,0.161,0.013,0.319,0.034,0.472c-0.542,0.307-1.409,0.674-2.584,0.782c-1.98,0.183-4.376,0.367-6.694,0.546
				c-5.255,0.404-10.219,0.786-11.961,1.231c-2.266,0.578-7.355,0.818-9.576,0.818c-0.325,0-0.595-0.005-0.794-0.015
				c-0.348-0.017-0.922-0.034-1.638-0.054c-2.592-0.074-7.417-0.211-9.347-0.67c-0.185-0.044-0.439-0.22-0.666-0.401
				c0.082-0.86,0.369-1.898,0.778-2.068c0.478-0.199,1.353-0.508,2.365-0.867c3.027-1.071,7.174-2.537,9.136-3.909
				c1.358-0.949,2.507-1.698,3.43-2.299c0.92-0.599,1.584-1.032,1.976-1.355c0.175-0.143,0.71-0.495,1.43-0.952L20.006,5.14
				c-0.853,0.541-1.477,0.95-1.644,1.088c-0.708,0.583-2.638,1.715-5.344,3.607c-2.53,1.769-9.437,3.891-11.312,4.672
				c-1.375,0.572-1.417,3.385-1.417,3.385c-0.012,0.01-0.017,0.017-0.027,0.026c0.474,0.417,0.983,0.833,1.486,0.953
				c2.556,0.609,9.5,0.667,11.167,0.75c0.212,0.011,0.499,0.016,0.844,0.016c2.373,0,7.498-0.256,9.823-0.849
				c2.437-0.622,12.276-1.175,18.5-1.75c1.916-0.177,3.139-0.958,3.609-1.317C45.605,15.399,45.54,15.084,45.54,14.787z"/>
		</g>
	</g>
</g>
<g id="Layer_1">
</g>
</svg>
