<?xml version="1.0" encoding="iso-8859-1"?>
<!-- Generator: Adobe Illustrator 18.0.0, SVG Export Plug-In . SVG Version: 6.00 Build 0)  -->
<!DOCTYPE svg PUBLIC "-//W3C//DTD SVG 1.1//EN" "http://www.w3.org/Graphics/SVG/1.1/DTD/svg11.dtd">
<svg version="1.1" xmlns="http://www.w3.org/2000/svg" xmlns:xlink="http://www.w3.org/1999/xlink" x="0px" y="0px"
	 viewBox="0 0 48.004 47.966" style="enable-background:new 0 0 48.004 47.966;" xml:space="preserve">
<g id="press">
	<g>
		<g>
			<g>
				<path d="M13.239,7c0.41,0.143,0.778,0.416,1.029,0.811L15.023,9h17.43l0.755-1.189C33.459,7.416,33.826,7.143,34.236,7H13.239z"
					/>
			</g>
			<g>
				<path d="M35.542,7c0.232,0.079,0.457,0.194,0.66,0.366c0.483,0.41,0.693,1.022,0.653,1.634h3.146V7H35.542z"/>
			</g>
			<g>
				<path d="M11.274,7.367c0.202-0.172,0.428-0.287,0.66-0.367h-3.93v2h2.619C10.582,8.389,10.792,7.777,11.274,7.367z"/>
			</g>
		</g>
		<g>
			<g>
				<path d="M7,2v11.999H2V2H7 M7,0H2C0.9,0,0,0.9,0,2v11.999c0,1.1,0.9,2,2,2h5c1.1,0,2-0.9,2-2V2C9,0.9,8.1,0,7,0L7,0z"/>
			</g>
		</g>
		<g>
			<rect x="3.98" y="0.991" width="1" height="13.999"/>
		</g>
		<g>
			<g>
				<path d="M46.004,2v11.999h-5V2H46.004 M46.004,0h-5c-1.1,0-2,0.9-2,2v11.999c0,1.1,0.9,2,2,2h5c1.1,0,2-0.9,2-2V2
					C48.004,0.9,47.104,0,46.004,0L46.004,0z"/>
			</g>
		</g>
		<g>
			<rect x="42.984" y="0.991" width="1" height="13.999"/>
		</g>
		<g>
			<g>
				<path d="M36.849,6.604c-0.548-0.465-1.24-0.721-1.951-0.721c-1.033,0-1.981,0.52-2.535,1.392l-4.834,7.613
					C27.82,15.463,28,16.105,28,16.794c0,0.554-0.114,1.081-0.307,1.568l6.36-10.014c0.185-0.29,0.501-0.464,0.846-0.464
					c0.167,0,0.417,0.043,0.656,0.246c0.409,0.347,0.375,0.993,0.093,1.438l-7.503,12.455C28.05,22.178,28,22.357,28,22.538
					l0,21.928c0,0.827-0.673,1.5-1.5,1.5c-0.827,0-1.5-0.673-1.5-1.5l0-10.5c0-0.552-0.448-1-1-1c-0.552,0-1,0.448-1,1v10.5
					c0,0.827-0.673,1.5-1.5,1.5c-0.83,0-1.505-0.673-1.505-1.5L20,22.538c0-0.192-0.055-0.38-0.16-0.542L11.818,9.549
					c-0.27-0.425-0.305-1.073,0.105-1.421c0.238-0.203,0.488-0.246,0.655-0.246c0.345,0,0.662,0.174,0.847,0.464l6.36,10.015
					c-0.194-0.486-0.308-1.013-0.308-1.568c0-0.688,0.18-1.33,0.47-1.906l-4.835-7.613c-0.554-0.871-1.502-1.392-2.535-1.392
					c-0.711,0-1.404,0.257-1.951,0.723c-1.127,0.96-1.341,2.686-0.493,4.022L18,22.833l-0.005,21.634c0,1.93,1.572,3.5,3.505,3.5
					c0.978,0,1.864-0.404,2.5-1.053c0.636,0.649,1.522,1.053,2.5,1.053c1.93,0,3.5-1.57,3.5-3.5l0-21.65l7.348-12.197
					C38.193,9.288,37.978,7.563,36.849,6.604z"/>
			</g>
		</g>
		<g>
			<g>
				<path d="M23.738,13.531c1.801,0,3.262,1.46,3.262,3.262s-1.46,3.262-3.262,3.262c-1.802,0-3.262-1.46-3.262-3.262
					S21.936,13.531,23.738,13.531 M23.738,11.531c-2.901,0-5.262,2.361-5.262,5.262s2.361,5.262,5.262,5.262
					c2.901,0,5.262-2.361,5.262-5.262S26.639,11.531,23.738,11.531L23.738,11.531z"/>
			</g>
		</g>
	</g>
</g>
<g id="Layer_1">
</g>
</svg>
