<?xml version="1.0" encoding="iso-8859-1"?>
<!-- Generator: Adobe Illustrator 18.0.0, SVG Export Plug-In . SVG Version: 6.00 Build 0)  -->
<!DOCTYPE svg PUBLIC "-//W3C//DTD SVG 1.1//EN" "http://www.w3.org/Graphics/SVG/1.1/DTD/svg11.dtd">
<svg version="1.1" xmlns="http://www.w3.org/2000/svg" xmlns:xlink="http://www.w3.org/1999/xlink" x="0px" y="0px"
	 viewBox="0 0 42.002 49.006" style="enable-background:new 0 0 42.002 49.006;" xml:space="preserve">
<g id="rings">
	<g>
		<g>
			<path d="M30.002,0L30.002,0v19h0.139c0.474,0,0.861,0.388,0.861,0.861v2.277c0,0.474-0.388,0.861-0.861,0.861h-2.277
				c-0.474,0-0.861-0.388-0.861-0.861v-2.277c0-0.474,0.388-0.861,0.861-0.861h0.139v-11l0,0V0h-2v21c0,1.654,1.346,3,3,3
				c1.654,0,3-1.346,3-3V0H30.002z"/>
		</g>
		<g>
			<g>
				<path d="M16.22,28.688c-0.136,0.753-0.219,1.525-0.219,2.317c0,3.581,1.456,6.828,3.806,9.181
					c0.379-0.615,0.678-1.282,0.881-1.992c-1.67-1.929-2.686-4.438-2.686-7.189c0-0.4,0.028-0.792,0.069-1.181
					C17.513,29.365,16.889,28.984,16.22,28.688z"/>
				<path d="M29.002,18.005c-4.962,0-9.281,2.797-11.471,6.896c0.623,0.255,1.215,0.567,1.781,0.919
					c1.553-2.891,4.354-5.01,7.69-5.624v-0.335c0-0.474,0.388-0.861,0.861-0.861h2.277c0.474,0,0.861,0.388,0.861,0.861v0.335
					c5.119,0.942,9,5.419,9,10.81c0,6.075-4.925,11-11,11c-1.804,0-3.502-0.443-5.004-1.213c-0.268,0.614-0.588,1.2-0.951,1.755
					c1.786,0.925,3.808,1.457,5.955,1.457c7.168,0,13-5.832,13-13C42.002,23.837,36.17,18.005,29.002,18.005z"/>
			</g>
			<g>
				<path d="M20.921,34.942c-0.123-0.916-0.398-1.782-0.804-2.573C20.255,33.278,20.529,34.142,20.921,34.942z"/>
				<path d="M30.983,22.232C30.933,22.66,30.581,23,30.14,23h-2.277c-0.441,0-0.793-0.34-0.842-0.767
					c-2.673,0.604-4.895,2.401-6.083,4.798c0.544,0.482,1.045,1.01,1.495,1.582c0.981-2.683,3.551-4.607,6.57-4.607
					c3.86,0,7,3.14,7,7c0,3.86-3.14,7-7,7c-1.504,0-2.895-0.481-4.038-1.292c-0.043,0.74-0.153,1.46-0.324,2.158
					c1.293,0.72,2.78,1.134,4.362,1.134c4.963,0,9-4.037,9-9C38.002,26.724,34.994,23.138,30.983,22.232z"/>
			</g>
		</g>
		<g>
			<g>
				<path d="M13,23.006c-7.168,0-13,5.832-13,13s5.832,13,13,13s13-5.832,13-13S20.168,23.006,13,23.006z M13,47.006
					c-6.075,0-11-4.925-11-11c0-5.391,3.881-9.868,9-10.81v-0.335C11,24.388,11.388,24,11.861,24h2.277
					C14.612,24,15,24.388,15,24.861v0.335c5.119,0.942,9,5.419,9,10.81C24,42.081,19.075,47.006,13,47.006z"/>
			</g>
			<g>
				<path d="M14.981,27.233C14.932,27.66,14.579,28,14.139,28h-2.277c-0.441,0-0.793-0.34-0.842-0.767
					C7.008,28.138,4,31.724,4,36.006c0,4.963,4.037,9,9,9c4.963,0,9-4.037,9-9C22,31.724,18.993,28.138,14.981,27.233z M13,43.006
					c-3.86,0-7-3.14-7-7s3.14-7,7-7s7,3.14,7,7S16.86,43.006,13,43.006z"/>
			</g>
		</g>
		<g>
			<path d="M14,0L14,0v24h0.139C14.612,24,15,24.388,15,24.861v2.277C15,27.612,14.612,28,14.139,28h-2.277
				C11.388,28,11,27.612,11,27.139v-2.277C11,24.388,11.388,24,11.861,24H12V13v0V0h-2v26.001c0,1.654,1.346,3,3,3s3-1.346,3-3V0H14
				z"/>
		</g>
		<g>
			<g>
				<path d="M14.139,24C14.612,24,15,24.388,15,24.861v2.277C15,27.612,14.612,28,14.139,28h-2.277C11.388,28,11,27.612,11,27.139
					v-2.277C11,24.388,11.388,24,11.861,24H14.139 M14.139,23h-2.277C10.835,23,10,23.835,10,24.861v2.277
					C10,28.165,10.835,29,11.861,29h2.277C15.165,29,16,28.165,16,27.139v-2.277C16,23.835,15.165,23,14.139,23L14.139,23z"/>
			</g>
		</g>
		<g>
			<g>
				<path d="M30.14,19c0.474,0,0.861,0.388,0.861,0.861v2.277c0,0.474-0.388,0.861-0.861,0.861h-2.277
					c-0.474,0-0.861-0.388-0.861-0.861v-2.277c0-0.474,0.388-0.861,0.861-0.861H30.14 M30.14,18h-2.277
					c-1.026,0-1.861,0.835-1.861,1.861v2.277c0,1.026,0.835,1.861,1.861,1.861h2.277c1.026,0,1.861-0.835,1.861-1.861v-2.277
					C32.002,18.835,31.167,18,30.14,18L30.14,18z"/>
			</g>
		</g>
	</g>
</g>
<g id="Layer_1">
</g>
</svg>
