<?xml version="1.0" encoding="iso-8859-1"?>
<!-- Generator: Adobe Illustrator 18.0.0, SVG Export Plug-In . SVG Version: 6.00 Build 0)  -->
<!DOCTYPE svg PUBLIC "-//W3C//DTD SVG 1.1//EN" "http://www.w3.org/Graphics/SVG/1.1/DTD/svg11.dtd">
<svg version="1.1" xmlns="http://www.w3.org/2000/svg" xmlns:xlink="http://www.w3.org/1999/xlink" x="0px" y="0px"
	 viewBox="0 0 28 47.704" style="enable-background:new 0 0 28 47.704;" xml:space="preserve">
<g id="shaker">
	<g>
		<g>
			<g>
				<path d="M26.789,9.294c-0.255-0.796-0.781-1.678-1.788-2.53V4.666c0.44-0.173,0.726-0.455,0.973-0.927
					c0.384-0.732,0.368-1.541-0.042-2.219C25.194,0.298,23.823,0,18.951,0C14.61,0,9.57,1.182,7.383,1.755
					C7.094,1.678,6.798,1.639,6.5,1.639c-1.93,0-3.5,1.57-3.5,3.5v1.625C1.992,7.616,1.465,8.5,1.21,9.296
					C0.476,9.843,0,10.718,0,11.701v4.5c0,1.378,1.122,2.5,2.5,2.5h0.571L3,17.702h22l-0.071,0.999H25.5c1.378,0,2.5-1.122,2.5-2.5
					v-4.5C28,10.717,27.524,9.842,26.789,9.294z M26,16.201c0,0.275-0.225,0.5-0.5,0.5h-23c-0.276,0-0.5-0.224-0.5-0.5v-4.5
					c0-0.55,0.45-1,1-1h0.007C3.006,10.68,3,10.66,3,10.639C3,9.57,3.744,8.582,5,7.769V5.139c0-0.825,0.675-1.5,1.5-1.5
					c0.281,0,0.541,0.083,0.766,0.218C8.75,3.447,14.319,2,18.951,2c5.393,0,5.426,0.478,5.253,0.81
					c-0.122,0.233-4.916,0.078-6.906,0.422c-1.266,0.219-6.558,1.479-7.986,2.373C8.757,5.951,8.333,6.088,8,6.094v0.357
					c1.726-0.512,3.785-0.812,6-0.812c1.413,0,2.76,0.125,4.001,0.346V4.139c0-0.276,0.224-0.5,0.5-0.5h4c0.276,0,0.5,0.224,0.5,0.5
					V7.77C24.257,8.582,25,9.57,25,10.639c0,0.021-0.006,0.042-0.007,0.063H25c0.55,0,1,0.45,1,1V16.201z"/>
			</g>
			<g>
				<path d="M26,15.702v0.499c0,0.275-0.225,0.5-0.5,0.5h-23c-0.276,0-0.5-0.224-0.5-0.5v-0.499H0.852l0.153,2.142l1.934,27.073
					c0.112,1.562,1.426,2.786,2.992,2.786h16.138c1.566,0,2.881-1.224,2.992-2.786l1.934-27.073l0.153-2.142H26z M23.066,44.775
					c-0.037,0.523-0.473,0.929-0.997,0.929H5.931c-0.525,0-0.96-0.405-0.997-0.929L3,17.702h22L23.066,44.775z"/>
			</g>
		</g>
		<g>
			<g>
				<g>
					<g>
						<path d="M25,17.702l-1.934,27.074c-0.037,0.523-0.473,0.929-0.997,0.929H5.931c-0.525,0-0.96-0.405-0.997-0.929L3,17.702H25
							 M26.074,16.702H25H3H1.926l0.077,1.071l1.934,27.074c0.074,1.042,0.951,1.857,1.995,1.857h16.138
							c1.044,0,1.92-0.816,1.995-1.857l1.934-27.074L26.074,16.702L26.074,16.702z"/>
					</g>
				</g>
			</g>
			<g>
				<g>
					<g>
						<path d="M25,10.701c0.55,0,1,0.45,1,1v4.5c0,0.275-0.225,0.5-0.5,0.5h-23c-0.276,0-0.5-0.224-0.5-0.5v-4.5c0-0.55,0.45-1,1-1
							H25 M25,9.701H3c-1.103,0-2,0.897-2,2v4.5c0,0.827,0.673,1.5,1.5,1.5h23c0.827,0,1.5-0.673,1.5-1.5v-4.5
							C27,10.598,26.103,9.701,25,9.701L25,9.701z"/>
					</g>
				</g>
			</g>
			<g>
				<path d="M3,10.201h0.553C4.085,7.958,8.652,6.138,14,6.138s9.914,1.819,10.446,4.063H25c0.163,0,0.316,0.033,0.463,0.081
					C25.089,7.371,20.196,5.138,14,5.138c-6.197,0-11.09,2.233-11.464,5.144C2.683,10.234,2.837,10.201,3,10.201z"/>
			</g>
			<g>
				<g>
					<path d="M8.418,3.554C7.959,3,7.274,2.639,6.5,2.639c-1.378,0-2.5,1.122-2.5,2.5v3.426c0.281-0.28,0.615-0.546,1-0.795V5.139
						c0-0.825,0.675-1.5,1.5-1.5c0.281,0,0.541,0.083,0.766,0.218C7.53,3.784,7.922,3.679,8.418,3.554z"/>
				</g>
			</g>
			<g>
				<path d="M23.375,2.925c-1.478,0.072-4.551,0.048-6.059,0.305c-0.195,0.253-0.315,0.566-0.315,0.909v1.693
					c0.341,0.044,0.674,0.095,1,0.153V4.139c0-0.276,0.224-0.5,0.5-0.5h4c0.276,0,0.5,0.224,0.5,0.5V7.77
					c0.385,0.249,0.719,0.516,1,0.796V4.139C24.001,3.638,23.753,3.197,23.375,2.925z"/>
			</g>
		</g>
	</g>
</g>
<g id="Layer_1">
</g>
</svg>
