<?xml version="1.0" encoding="iso-8859-1"?>
<!-- Generator: Adobe Illustrator 18.0.0, SVG Export Plug-In . SVG Version: 6.00 Build 0)  -->
<!DOCTYPE svg PUBLIC "-//W3C//DTD SVG 1.1//EN" "http://www.w3.org/Graphics/SVG/1.1/DTD/svg11.dtd">
<svg version="1.1" xmlns="http://www.w3.org/2000/svg" xmlns:xlink="http://www.w3.org/1999/xlink" x="0px" y="0px"
	 viewBox="0 0 23.954 48" style="enable-background:new 0 0 23.954 48;" xml:space="preserve">
<g id="singlet">
	<g>
		<g>
			<path d="M16.134,2l2.643,0.219c-1.22,7.197,0.24,10.219,0.701,11.43c0.461,1.211,2.134,2.249,2.134,2.249
				s-0.173,0.634-0.692,1.903c-0.519,1.269-0.692,6.113-0.519,7.785c0.173,1.672,0.923,5.709,1.384,8.535
				s-0.173,10.957-0.173,11.245c0,0.288-3.575,0.634-4.613,0.634s-3.46-0.346-3.748-0.519c-0.288-0.173-0.505-4.325-0.577-5.248
				c-0.072-0.923,0.238-4.138-0.115-4.152c-0.134-0.005-0.358-0.008-0.582-0.008c-0.224,0-0.448,0.003-0.581,0.008
				c-0.353,0.014-0.043,3.229-0.115,4.152c-0.072,0.923-0.288,5.075-0.577,5.248C10.415,45.654,7.993,46,6.955,46
				s-4.613-0.346-4.613-0.634c0-0.288-0.634-8.419-0.173-11.245c0.461-2.826,1.211-6.862,1.384-8.535
				c0.173-1.672,0-6.516-0.519-7.785c-0.519-1.269-0.692-1.903-0.692-1.903s1.672-1.038,2.134-2.249
				c0.461-1.211,1.922-4.233,0.701-11.43L7.82,2c0,0,0.288,4.844,1.038,6.17c0.738,1.306,1.716,2.646,3.119,2.646
				c1.403,0,2.381-1.339,3.119-2.646C15.846,6.844,16.134,2,16.134,2 M16.134,0c-0.479,0-0.945,0.172-1.31,0.489
				c-0.407,0.353-0.654,0.854-0.686,1.392c-0.136,2.278-0.504,4.76-0.787,5.312c-0.907,1.604-1.355,1.623-1.374,1.623
				c-0.019,0-0.467-0.019-1.378-1.63c-0.279-0.545-0.646-3.027-0.783-5.305C9.785,1.343,9.537,0.841,9.13,0.489
				C8.765,0.172,8.3,0,7.82,0C7.765,0,7.71,0.002,7.655,0.007L5.012,0.226C4.454,0.272,3.941,0.55,3.597,0.993
				S3.112,2.001,3.205,2.553c1.052,6.205-0.031,8.945-0.494,10.116l-0.104,0.267c-0.111,0.29-0.755,0.905-1.326,1.266
				c-0.744,0.469-1.1,1.373-0.869,2.222c0.021,0.077,0.221,0.791,0.77,2.134c0.31,0.819,0.553,5.157,0.381,6.822
				c-0.111,1.07-0.493,3.288-0.862,5.433c-0.179,1.041-0.358,2.076-0.506,2.985c-0.386,2.366-0.119,7.476,0.116,11.114
				c0.016,0.246,0.027,0.417,0.031,0.495c0.029,1.933,2.052,2.175,3.679,2.369C5.102,47.906,6.336,48,6.955,48
				c0.291,0,3.759-0.193,4.777-0.804c0.088-0.053,0.169-0.107,0.245-0.164c0.076,0.057,0.157,0.111,0.245,0.164
				C13.24,47.807,16.708,48,16.999,48c0.62,0,1.853-0.094,2.934-0.223c1.628-0.195,3.651-0.437,3.679-2.369
				c0.004-0.078,0.015-0.249,0.031-0.495c0.235-3.638,0.502-8.748,0.116-11.114c-0.148-0.91-0.327-1.944-0.506-2.985
				c-0.37-2.145-0.752-4.363-0.862-5.433c-0.172-1.665,0.071-6.003,0.382-6.826c0.548-1.339,0.748-2.053,0.769-2.13
				c0.233-0.854-0.123-1.759-0.875-2.226c-0.565-0.356-1.209-0.971-1.319-1.262l-0.105-0.267c-0.463-1.17-1.546-3.911-0.494-10.116
				c0.094-0.552-0.048-1.118-0.392-1.561c-0.343-0.442-0.857-0.721-1.415-0.767l-2.643-0.219C16.244,0.002,16.189,0,16.134,0
				L16.134,0z"/>
		</g>
		<g>
			<path d="M7.135,44.881c-0.246,0-6.027-0.013-6.027-1.134c0-0.276,0.224-0.5,0.5-0.5c0.133,0,0.254,0.052,0.344,0.137
				c0.616,0.199,3.887,0.497,5.183,0.497c1.221,0,3.93-0.335,4.28-0.472c0.248-0.098,0.545,0.013,0.653,0.256
				c0.109,0.244,0.021,0.524-0.218,0.644C11.36,44.555,8.256,44.881,7.135,44.881z"/>
		</g>
		<g>
			<path d="M7.135,42.881c-0.246,0-6.027-0.013-6.027-1.134c0-0.276,0.224-0.5,0.5-0.5c0.133,0,0.254,0.052,0.344,0.137
				c0.616,0.199,3.888,0.497,5.183,0.497c1.22,0,3.929-0.335,4.281-0.473c0.247-0.094,0.544,0.013,0.653,0.257
				c0.108,0.245,0.02,0.524-0.219,0.644C11.358,42.555,8.255,42.881,7.135,42.881z"/>
		</g>
		<g>
			<path d="M18.136,44.881c-0.246,0-6.027-0.013-6.027-1.134c0-0.276,0.224-0.5,0.5-0.5c0.133,0,0.254,0.052,0.344,0.137
				c0.616,0.199,3.887,0.497,5.183,0.497c1.221,0,3.93-0.335,4.28-0.472c0.253-0.1,0.544,0.013,0.653,0.256
				c0.108,0.244,0.021,0.524-0.219,0.644C22.361,44.555,19.258,44.881,18.136,44.881z"/>
		</g>
		<g>
			<path d="M18.136,42.881c-0.246,0-6.027-0.013-6.027-1.134c0-0.276,0.224-0.5,0.5-0.5c0.133,0,0.254,0.052,0.344,0.137
				c0.616,0.199,3.887,0.497,5.183,0.497c1.22,0,3.93-0.335,4.281-0.473c0.25-0.096,0.545,0.014,0.652,0.257
				c0.108,0.245,0.021,0.524-0.219,0.644C22.359,42.555,19.257,42.881,18.136,42.881z"/>
		</g>
	</g>
</g>
<g id="Layer_1">
</g>
</svg>
