<?xml version="1.0" encoding="utf-8"?>
<!-- Generator: Adobe Illustrator 18.1.1, SVG Export Plug-In . SVG Version: 6.00 Build 0)  -->
<svg version="1.1" id="Layer_1" xmlns="http://www.w3.org/2000/svg" xmlns:xlink="http://www.w3.org/1999/xlink" x="0px" y="0px"
	 viewBox="0 0 600 1000" enable-background="new 0 0 600 1000" xml:space="preserve">
<g id="snatch">
	<g>
		<g>
			<g>
				<path fill="#FFFFFF" d="M165.5,299.5c5.1,1.8,9.7,5.2,12.9,10.1l9.4,14.9h217.9l9.4-14.9c3.1-4.9,7.7-8.3,12.8-10.1H165.5z"/>
			</g>
			<g>
				<path fill="#FFFFFF" d="M140.9,304.1c2.5-2.1,5.3-3.6,8.2-4.6H100v25h32.7C132.3,316.9,134.9,309.2,140.9,304.1z"/>
			</g>
			<g>
				<path fill="#FFFFFF" d="M444.2,299.5c2.9,1,5.7,2.4,8.2,4.6c6,5.1,8.7,12.8,8.2,20.4H500v-25H444.2z"/>
			</g>
		</g>
		<g>
			<g>
				<path fill="#FFFFFF" d="M87.5,237v150H25V237H87.5 M87.5,212H25c-13.7,0-25,11.2-25,25v150c0,13.7,11.2,25,25,25h62.5
					c13.7,0,25-11.2,25-25V237C112.5,223.3,101.2,212,87.5,212L87.5,212z"/>
			</g>
		</g>
		<g>
			<rect x="49.7" y="224.4" fill="#FFFFFF" width="12.5" height="175"/>
		</g>
		<g>
			<g>
				<path fill="#FFFFFF" d="M575,237v150h-62.5V237H575 M575,212h-62.5c-13.7,0-25,11.2-25,25v150c0,13.7,11.2,25,25,25H575
					c13.7,0,25-11.2,25-25V237C600,223.3,588.8,212,575,212L575,212z"/>
			</g>
		</g>
		<g>
			<rect x="537.3" y="224.4" fill="#FFFFFF" width="12.5" height="175"/>
		</g>
		<g>
			<g>
				<path fill="#FFFFFF" d="M513,737.1l-42.3-129.6c-5.7-17.5-23.3-28.6-42.3-25.3L375,592v-94.8l91.8-152.4
					c10.6-16.6,7.9-38.2-6.2-50.2c-6.8-5.8-15.5-9-24.4-9c-12.9,0-24.8,6.5-31.7,17.4l-60.4,95.2c3.6,7.2,5.9,15.2,5.9,23.8
					c0,7.2-1.5,14-4.1,20.3l79.7-125.9c2.3-3.6,6.3-5.8,10.6-5.8c2.1,0,5.2,0.5,8.2,3.1c5.1,4.3,4.7,12.4,1.2,18L350,490.2v115.8
					l0.7,13.2h12.5l69.6-12.4c6.3-1.1,12.2,2.6,14.1,8.4l42.3,129.6c1.9,5.8,0.4,13.7-5.4,16.7c-6.9,3.5-15.4-0.1-17.7-7.2
					l-35.9-109.9l-3.4-9.2h-9.2l-107.8,19.4c-2.6,0.5-5.2,0.1-7.6-1.1l-5.4-2.6l-5.4,2.6c-2.4,1.2-5,1.5-7.6,1.1L177,635.3
					l-10.9,0.5l-38.8,118.6c-2.3,7.1-10.8,10.7-17.7,7.2c-5.8-3-7.3-10.8-5.4-16.7l42.1-129c2-6.2,8.3-10.1,14.9-8.9l73.2,13.3
					l1.2,0.2l14.3-0.7V490L147.7,331.4c-3.4-5.3-3.8-13.4,1.3-17.7c3-2.5,6.1-3.1,8.2-3.1c4.3,0,8.3,2.2,10.6,5.8l79.5,125.2
					c-2.4-6.1-3.8-12.7-3.8-19.6c0-8.6,2.2-16.6,5.9-23.8l-60.4-95.2c-6.9-10.9-18.8-17.4-31.7-17.4c-8.9,0-17.5,3.2-24.4,9
					c-14.1,12-16.8,33.6-6.2,50.3L225,497.4v95.8l-59.3-10.8c-19.1-3.5-37.3,7.8-43.2,25.7l-42.1,129c-6,18.3,1.7,38.4,17.8,46.7
					c5.4,2.7,11.3,4.2,17.3,4.2c16.3,0,30.6-10.4,35.6-25.9l32.7-100.2l95.3,17.3c6,1.1,11.9,0.7,17.5-1c5.6,1.7,11.5,2.1,17.5,1
					l95.3-17.3l32.8,100.2c5,15.5,19.4,25.9,35.6,25.9c5.9,0,11.9-1.5,17.3-4.2C511.4,775.5,519,755.4,513,737.1z"/>
			</g>
		</g>
		<g>
			<g>
				<path fill="#FFFFFF" d="M296.7,381.1c22.5,0,40.8,18.2,40.8,40.8s-18.3,40.8-40.8,40.8s-40.8-18.2-40.8-40.8
					C255.9,399.4,274.2,381.1,296.7,381.1 M296.7,356.1c-36.3,0-65.8,29.5-65.8,65.8s29.5,65.8,65.8,65.8
					c36.3,0,65.8-29.5,65.8-65.8S333,356.1,296.7,356.1L296.7,356.1z"/>
			</g>
		</g>
	</g>
</g>
<g id="Layer_1_1_">
</g>
</svg>
