<?xml version="1.0" encoding="iso-8859-1"?>
<!-- Generator: Adobe Illustrator 18.0.0, SVG Export Plug-In . SVG Version: 6.00 Build 0)  -->
<!DOCTYPE svg PUBLIC "-//W3C//DTD SVG 1.1//EN" "http://www.w3.org/Graphics/SVG/1.1/DTD/svg11.dtd">
<svg version="1.1" xmlns="http://www.w3.org/2000/svg" xmlns:xlink="http://www.w3.org/1999/xlink" x="0px" y="0px"
	 viewBox="0 0 48.004 34.551" style="enable-background:new 0 0 48.004 34.551;" xml:space="preserve">
<g id="squat">
	<g>
		<g>
			<g>
				<g>
					<path style="fill:#1D1D1B;" d="M14.991,10.438c0-0.993,0.735-1.816,1.687-1.968H8.003v2h6.988V10.438z"/>
				</g>
				<g>
					<path style="fill:#1D1D1B;" d="M17.304,8.47c0.952,0.152,1.687,0.975,1.687,1.968v0.032h0.319c0.362-0.869,1.03-1.569,1.861-2
						H17.304z"/>
				</g>
			</g>
			<g>
				<g>
					<path style="fill:#1D1D1B;" d="M28.992,10.438c0-0.993,0.735-1.816,1.687-1.968h-3.847c0.831,0.431,1.498,1.131,1.861,2h0.299
						V10.438z"/>
				</g>
				<g>
					<path style="fill:#1D1D1B;" d="M31.305,8.47c0.952,0.152,1.687,0.975,1.687,1.968v0.032h7.009v-2H31.305z"/>
				</g>
			</g>
		</g>
		<g>
			<g>
				<g>
					<path style="fill:#1D1D1B;" d="M7,3.47v11.999H2V3.47H7 M7,1.47H2c-1.1,0-2,0.9-2,2v11.999c0,1.1,0.9,2,2,2h5c1.1,0,2-0.9,2-2
						V3.47C9,2.37,8.1,1.47,7,1.47L7,1.47z"/>
				</g>
			</g>
		</g>
		<g>
			<g>
				<rect x="3.98" y="2.461" style="fill:#1D1D1B;" width="1" height="13.999"/>
			</g>
		</g>
		<g>
			<g>
				<g>
					<path style="fill:#1D1D1B;" d="M46.004,3.47v11.999h-5V3.47H46.004 M46.004,1.47h-5c-1.1,0-2,0.9-2,2v11.999c0,1.1,0.9,2,2,2h5
						c1.1,0,2-0.9,2-2V3.47C48.004,2.37,47.104,1.47,46.004,1.47L46.004,1.47z"/>
				</g>
			</g>
		</g>
		<g>
			<g>
				<rect x="42.984" y="2.461" style="fill:#1D1D1B;" width="1" height="13.999"/>
			</g>
		</g>
		<g>
			<path d="M41.045,30.478l-3.387-10.366c-0.459-1.404-1.87-2.293-3.388-2.02l-4.269,0.776v-6.861c0-1.924-1.105-3.579-2.702-4.414
				c-0.416,0.634-1.002,1.14-1.686,1.478c1.362,0.283,2.388,1.492,2.388,2.937v7.989l0.058,1.059h1l5.565-0.994
				c0.505-0.088,0.98,0.205,1.133,0.673l3.387,10.367c0.153,0.468,0.032,1.095-0.435,1.335c-0.556,0.285-1.235-0.008-1.42-0.574
				l-2.883-8.82l-0.29-0.709h-0.709l-8.625,1.55c-0.21,0.037-0.415,0.007-0.61-0.087l-0.435-0.211l-0.435,0.211
				c-0.195,0.093-0.4,0.124-0.608,0.087l-8.434-1.532l-0.101-0.017l-0.872,0.041l-3.1,9.489c-0.186,0.566-0.87,0.857-1.42,0.573
				c-0.468-0.24-0.589-0.867-0.436-1.336l3.371-10.317c0.163-0.496,0.659-0.81,1.195-0.713l5.86,1.065l0.097,0.016l1.145-0.059
				v-9.084c0-1.322,0.865-2.434,2.054-2.832c-0.692-0.299-1.28-0.782-1.725-1.379c-1.395,0.888-2.329,2.439-2.329,4.212v6.956
				l-4.745-0.862c-1.528-0.275-2.983,0.625-3.453,2.059L6.432,30.477c-0.481,1.467,0.131,3.073,1.423,3.736
				c0.435,0.224,0.9,0.337,1.383,0.337c1.302,0,2.447-0.832,2.851-2.069l2.62-8.019l7.628,1.386c0.48,0.087,0.953,0.055,1.401-0.083
				c0.449,0.138,0.922,0.17,1.402,0.083l7.628-1.386l2.621,8.018c0.403,1.238,1.549,2.069,2.851,2.069
				c0.475,0,0.953-0.117,1.383-0.337C40.914,33.551,41.525,31.944,41.045,30.478z"/>
		</g>
		<g>
			<g>
				<g>
					<path d="M23.739,2c1.802,0,3.262,1.46,3.262,3.262s-1.46,3.262-3.262,3.262s-3.262-1.46-3.262-3.262S21.937,2,23.739,2
						 M23.739,0c-2.901,0-5.262,2.361-5.262,5.262s2.361,5.262,5.262,5.262s5.262-2.36,5.262-5.262S26.64,0,23.739,0L23.739,0z"/>
				</g>
			</g>
		</g>
		<g>
			<g>
				<path d="M16.991,17.438c-1.654,0-3-1.346-3-3v-4c0-1.654,1.346-3,3-3c1.654,0,3,1.346,3,3v4
					C19.991,16.092,18.645,17.438,16.991,17.438z M16.991,9.438c-0.552,0-1,0.449-1,1v4c0,0.551,0.448,1,1,1s1-0.449,1-1v-4
					C17.991,9.886,17.543,9.438,16.991,9.438z"/>
			</g>
		</g>
		<g>
			<g>
				<path d="M30.992,17.438c-1.654,0-3-1.346-3-3v-4c0-1.654,1.346-3,3-3c1.654,0,3,1.346,3,3v4
					C33.992,16.092,32.646,17.438,30.992,17.438z M30.992,9.438c-0.552,0-1,0.449-1,1v4c0,0.551,0.448,1,1,1c0.552,0,1-0.449,1-1v-4
					C31.992,9.886,31.544,9.438,30.992,9.438z"/>
			</g>
		</g>
	</g>
</g>
<g id="Layer_1">
</g>
</svg>
