<?xml version="1.0" encoding="iso-8859-1"?>
<!-- Generator: Adobe Illustrator 18.0.0, SVG Export Plug-In . SVG Version: 6.00 Build 0)  -->
<!DOCTYPE svg PUBLIC "-//W3C//DTD SVG 1.1//EN" "http://www.w3.org/Graphics/SVG/1.1/DTD/svg11.dtd">
<svg version="1.1" xmlns="http://www.w3.org/2000/svg" xmlns:xlink="http://www.w3.org/1999/xlink" x="0px" y="0px"
	 viewBox="0 0 35 48.001" style="enable-background:new 0 0 35 48.001;" xml:space="preserve">
<g id="supplements">
	<g>
		<g>
			<path style="fill:#1D1D1B;" d="M31,8.001c1.105,0,2,0.895,2,2v34c0,1.105-0.895,2-2,2H4c-1.105,0-2-0.895-2-2v-34
				c0-1.105,0.895-2,2-2H31 M31,6.001H4c-2.206,0-4,1.794-4,4v34c0,2.206,1.794,4,4,4h27c2.206,0,4-1.794,4-4v-34
				C35,7.795,33.206,6.001,31,6.001L31,6.001z"/>
		</g>
		<g>
			<path style="fill:#1D1D1B;" d="M29,2v3.999H6V2H29 M31,0h-2H6H4v2v3.999v2h2h23h2v-2V2V0L31,0z"/>
		</g>
		<g>
			<rect x="0.5" y="13" style="fill:#1D1D1B;" width="33" height="1"/>
		</g>
		<g>
			<rect x="0.5" y="40.003" style="fill:#1D1D1B;" width="33" height="1"/>
		</g>
		<g>
			<polygon style="fill:#1D1D1B;" points="20.088,17.362 17.431,25.115 23.884,25.115 16.102,36.639 18.38,28.677 12.116,28.677 			
				"/>
		</g>
		<g>
			<rect x="8" y="1.163" style="fill:#1D1D1B;" width="1" height="5"/>
		</g>
		<g>
			<rect x="11" y="1.163" style="fill:#1D1D1B;" width="1" height="5"/>
		</g>
		<g>
			<rect x="14.001" y="1.163" style="fill:#1D1D1B;" width="1" height="5"/>
		</g>
		<g>
			<rect x="17.001" y="1.163" style="fill:#1D1D1B;" width="1" height="5"/>
		</g>
		<g>
			<rect x="20.001" y="1.163" style="fill:#1D1D1B;" width="1" height="5"/>
		</g>
		<g>
			<rect x="23.001" y="1.163" style="fill:#1D1D1B;" width="1" height="5"/>
		</g>
		<g>
			<rect x="26.002" y="1.163" style="fill:#1D1D1B;" width="1" height="5"/>
		</g>
	</g>
</g>
<g id="Layer_1">
</g>
</svg>
