<?xml version="1.0" encoding="iso-8859-1"?>
<!-- Generator: Adobe Illustrator 18.0.0, SVG Export Plug-In . SVG Version: 6.00 Build 0)  -->
<!DOCTYPE svg PUBLIC "-//W3C//DTD SVG 1.1//EN" "http://www.w3.org/Graphics/SVG/1.1/DTD/svg11.dtd">
<svg version="1.1" xmlns="http://www.w3.org/2000/svg" xmlns:xlink="http://www.w3.org/1999/xlink" x="0px" y="0px"
	 viewBox="0 0 42 48" style="enable-background:new 0 0 42 48;" xml:space="preserve">
<g id="timer">
	<g>
		<g>
			<path d="M21,8c10.493,0,19,8.507,19,19s-8.507,19-19,19S2,37.493,2,27S10.507,8,21,8 M21,6C9.421,6,0,15.42,0,27
				c0,11.579,9.421,21,21,21s21-9.421,21-21C42,15.42,32.579,6,21,6L21,6z"/>
		</g>
		<g>
			<path d="M21,25c1.105,0,2,0.895,2,2s-0.895,2-2,2c-1.105,0-2-0.895-2-2S19.895,25,21,25 M21,24c-1.654,0-3,1.346-3,3s1.346,3,3,3
				s3-1.346,3-3S22.654,24,21,24L21,24z"/>
		</g>
		<g>
			<rect x="19" y="3.25" width="4" height="4"/>
		</g>
		<g>
			<path d="M21,24.751c-0.276,0-0.5-0.224-0.5-0.5v-10c0-0.276,0.224-0.5,0.5-0.5c0.276,0,0.5,0.224,0.5,0.5v10
				C21.5,24.528,21.277,24.751,21,24.751z"/>
		</g>
		<g>
			<path d="M25,0h-8c-1.1,0-2,0.9-2,2s0.9,2,2,2h8c1.1,0,2-0.9,2-2S26.1,0,25,0L25,0z"/>
		</g>
		<g>
			<circle cx="21" cy="11" r="1"/>
		</g>
		<g>
			<circle cx="21" cy="43.003" r="1"/>
		</g>
		<g>
			<circle cx="4.998" cy="27.001" r="1"/>
		</g>
		<g>
			<circle cx="37.002" cy="27.001" r="1"/>
		</g>
	</g>
</g>
<g id="Layer_1">
</g>
</svg>
